<!-- Created for MapSVG plugin: http://mapsvg.com -->
<svg
   xmlns:mapsvg="http://mapsvg.com"
   xmlns:dc="http://purl.org/dc/elements/1.1/"
   xmlns:rdf="http://www.w3.org/1999/02/22-rdf-syntax-ns#"
   xmlns:svg="http://www.w3.org/2000/svg"
   xmlns="http://www.w3.org/2000/svg"
   mapsvg:geoViewBox="6.624486 47.092916 18.521301 35.490303"
   class="italy-map__svg"
   role="img"
   aria-label="Mappa dell'Italia divisa per regioni"
   width="630"
   height="740"
   viewBox="0 0 630 740">
  <style>
    .italy-map__svg {
      background: transparent;
    }

    .italy-map__svg path {
      fill: #f5f6fa;
      stroke: #000000;
      stroke-width: 1.15;
      stroke-linejoin: round;
      stroke-linecap: round;
      vector-effect: non-scaling-stroke;
    }

    .italy-map__link path {
      cursor: pointer;
      pointer-events: visiblePainted;
      touch-action: manipulation;
      transition: fill 150ms ease;
    }

    .italy-map__link:hover path,
    .italy-map__link:active path,
    .italy-map__link:focus-visible path {
      fill: #f6c343;
    }
  </style>
  <rect width="100%" height="100%" rx="32" ry="32" fill="#3834464d"/>
  <g id="italy-map-shape" transform="translate(10 10)">
    <path
      d="m 299.30021,372.14051 -0.11,-0.11 -0.1,0.03 -0.17,0.04 -0.16,0.26 -0.03,0.06 0.06,0.08 0.06,-0.02 0.26,0.06 0.2,-0.08 0.02,-0.06 -0.04,-0.08 z"
      title="Vatican City"
      id="VA" />
    <path
      d="m 296.86021,232.83051 0,0 3.83,0.43 0.39,-1.34 0,0 1.14,-1.56 -0.32,-3.75 -3.7,2.48 -1.66,0.03 0.28,3.61 z"
      title="San Marino"
      id="SM" />
    <a class="italy-map__link" href="{{ '/regioni/abruzzo/' | relative_url }}" aria-label="Abruzzo">

      <path
      d="m 374.27021,304.03051 1.36,6.34 2.24,5.51 6.27,11.18 7.01,7.71 8.24,6.15 0.87,2.33 3.67,3.53 0.33,1.35 5.56,3.7 5.16,1.83 0.21,4.85 3.43,2.43 0,0 -1.17,1.85 0.91,0.84 -2.84,1.96 -2.3,2.84 -0.82,3.1 -2.36,1.66 -1.72,3.73 -4.76,5.13 -2.04,-0.37 0.79,-0.64 -1.07,-4.29 -1.1,-1.07 -2.44,-1.62 -1.05,1.32 -0.57,-0.22 -0.98,-2.19 -1.24,0.13 -0.94,-1.26 -2.91,2.38 -1.43,2.22 -2.22,0.15 -0.42,0.9 1.25,3.55 1.52,0.89 -0.42,1.03 -0.85,-0.13 -0.25,-1.01 -0.67,1.24 -1.99,0.05 -0.63,2.64 -0.79,-2.07 -1.16,0.09 -0.87,2.4 -1.33,0.05 -0.28,1.46 -1.87,-0.98 -2.1,0.52 0,0 -2.49,-3.27 -1.96,0.19 -2.4,-1.41 -1.03,0.65 -1.33,-0.4 -1.75,-3.31 -1.32,0.73 -1.07,-1.18 -1.78,-0.49 -1.06,2.09 -4.05,1.35 -1.48,-0.93 -0.73,-1.81 -1.84,-0.43 -1.48,-1.43 -1.73,-0.7 -1.4,1.36 -1,-3.63 1.28,-2.29 -1,-1.41 -1.01,0.18 -1.98,-2.28 -0.9,0.37 -7.65,-4.49 -2.03,-0.72 -0.02,1.24 -2.38,-0.64 -1.41,-2.25 0.15,-4.92 0.78,0.36 2.08,-1.78 0.05,-2.39 1.73,-0.13 6.56,3.53 1.24,-0.77 1.69,0.62 1.07,-2.23 1.5,-0.29 -0.53,-0.71 1.83,-0.33 -1.93,-1.22 -0.3,-1.63 -2.43,-0.84 -2.58,-2.54 -0.65,-3.28 -3.74,-2.48 2.08,-2.33 -3.99,-3.74 3.18,-2.42 -0.1,-2.38 -1,-1.86 1.03,-0.58 0.76,-2.76 2.75,1.04 0.61,-0.73 1.35,0 0.58,0.98 1.5,-0.77 2.26,0.31 1.35,-1.17 0.76,-3.43 -1.99,-0.63 -1.15,-1.37 0.54,-1.68 0,0 0,0 0,0 0,0 0,0 1.66,0.48 1.88,-1.33 0.57,0.46 0.6,-2.37 2.37,-0.39 0.3,-2.49 1.34,-1.49 0.24,-1.44 2.08,1.13 2.37,-1.11 0.67,0.94 1.35,-0.17 2.01,-0.94 0.46,-2.21 0.68,-0.38 2.78,-0.18 2.11,-1.41 4.99,-1.07 0,0 z"
      title="Abruzzo"
      id="IT_65" />

    </a>
    <a class="italy-map__link" href="{{ '/regioni/basilicata/' | relative_url }}" aria-label="Basilicata">

      <path
      d="m 457.43021,430.14051 -0.33,-1.23 1.34,-1.23 1.95,-0.38 4.65,0.78 2.51,-0.9 1.45,1.05 1.69,-0.91 -0.16,-0.95 1.67,-0.43 -0.18,-0.76 0.82,0.29 1.42,-0.85 2.3,1.65 1.74,0.3 0.24,1.03 1.26,0.3 0.61,2.35 0.62,-0.42 1.84,1.5 -0.64,1.04 0.3,1.55 -1.79,2.05 -1.51,-0.27 0.61,1.13 5.59,2.38 1.59,1.51 2.14,-1.96 2,0.65 2.94,6.46 6.56,6.05 0.78,1.74 1.53,0.42 3.48,-4.04 2.04,2.47 -0.06,-1.89 0.97,-0.26 0.85,1.33 0.11,-1.74 1.69,0.73 1.01,-0.64 0.17,0.99 1.17,0.7 0.54,-0.74 2.92,2.22 -1.03,0.51 1.22,1.41 -0.9,3.62 0.92,2.05 -0.63,0.46 -0.43,2.89 0.96,1.01 -0.44,0.81 1.16,0.88 -0.96,2.08 0.86,0.94 1.7,-0.43 1.77,1.07 0.37,1.62 1.74,1.47 0.78,1.86 0,0 -3.94,5.64 -4.81,10.36 -2.29,1.67 0,0 -2.72,-0.95 -3.12,0.97 -3.08,-1.02 -1.91,0.37 -0.66,-1.11 -0.63,1.47 0.22,2.84 -1.03,2.22 0.26,2 -3.05,5.44 1.11,1.14 -0.44,1.32 -2.14,-2.39 -2,-0.18 -2.93,0.66 -0.02,1.75 -2.78,-1.27 -1.04,1.08 -4.8,0.26 -1.55,-1.74 0.37,-0.62 -0.85,-1.6 1.24,-2.23 -1.16,-0.32 -1.49,0.85 -0.69,-0.96 -1.85,-0.3 -1.43,1.23 -0.62,-0.87 -0.93,0.49 -0.9,-0.94 -1.68,0.18 -2.35,2.53 -0.95,2.6 0,0 -1.79,-3.55 -2.1,-1.92 -0.14,-1.48 -1.68,-0.98 0,0 1.69,-1.01 -1.27,-1.38 1.21,-0.34 1.56,-2.12 -0.32,-2.91 1.62,-1.65 -0.14,-1 3.47,-1.48 -0.52,-1.23 0.93,-0.83 -0.04,-1.42 -0.61,-1.15 -2.93,-0.85 -0.14,-1.32 -1.64,-1.51 -0.05,-2.56 -2.1,-0.76 -1.6,-2.14 -2.06,-1.03 -0.48,-1.73 -2.17,-1.71 0.72,-1.08 -1.35,-3.21 0.7,-0.82 -4.35,-2.63 0.73,-2.02 1.65,-1.01 0.06,-0.81 -5.93,-3.85 0.17,-4.85 -0.82,-0.07 0.22,-1.18 -2.06,-1.27 2.1,-0.15 0.12,-2.14 -1.02,-0.52 0.43,-0.66 4.79,1.08 0.64,-0.35 -0.23,-1.16 2.96,-1.29 2.26,-5.87 z"
      title="Basilicata"
      id="IT-77" />

    </a>
    <a class="italy-map__link" href="{{ '/regioni/calabria/' | relative_url }}" aria-label="Calabria">

      <path
      d="m 468.31021,506.03051 0.95,-2.6 2.35,-2.52 1.68,-0.18 0.9,0.93 0.93,-0.49 0.62,0.87 1.43,-1.23 1.86,0.3 0.69,0.96 1.49,-0.85 1.16,0.31 -1.24,2.23 0.85,1.6 -0.37,0.62 1.55,1.74 4.8,-0.26 1.04,-1.08 2.78,1.26 0.02,-1.75 2.93,-0.65 2,0.18 2.14,2.38 0.44,-1.32 -1.1,-1.14 3.05,-5.44 -0.27,-2.01 1.03,-2.21 -0.21,-2.84 0.63,-1.46 0.66,1.1 1.91,-0.37 3.09,1.02 3.12,-0.97 2.72,0.95 0,0 -1.91,2.44 -0.34,2.63 1.36,5.79 -4.6,5.83 -2.5,4.63 0.04,2.92 2.01,2.32 -0.55,3.46 5.08,3.01 8.04,0.12 4.72,5.33 4.69,2.87 3.47,0.89 0.78,2.06 2.14,2.06 3.92,1.35 -2.36,5.88 -0.25,3.69 2.17,3.18 -1.96,6.55 1.44,1.88 -0.31,0.95 0.72,1.14 3.06,1.45 -2.16,1.96 0.25,2.8 -3.82,4 -0.27,-1.1 -1.41,-0.51 -2.11,0.76 -2.14,-2.17 -4.69,0.74 -5.72,2.13 -8.75,5.42 -3.65,6.55 1.15,2.04 1.31,13.66 -0.46,2.82 -5.65,5.88 -7.24,3.06 -8,10.12 -1.01,6.78 -2.54,4.83 -1.69,2.1 -3.34,0.54 -4.03,-0.94 -8.19,0.77 -4.24,-2.41 -2.17,-4.07 1.07,-1.52 -1.27,-3.39 1.26,-2.9 -1.12,-3.36 0.05,-2.72 4.1,-1.68 1.89,-0.06 2.58,-1.46 1.25,-2.17 0.46,-3.18 1.15,-1.04 0.8,-2.74 1.47,-1.34 0.73,-1.94 0.75,-4.87 -5.32,-4.76 0.48,-1.82 1.81,-1.72 4.22,-1.4 1.74,-1.83 2.46,-0.3 3.42,1.02 1.73,-0.5 2.42,-1.9 1.98,-6.48 -0.29,-5.12 -3.09,-1.5 -3.02,-5.58 -1.62,-7.27 -0.78,-10.46 -2.75,-9.07 -3.65,-5.7 -2.64,-1.89 -2.12,-7.35 -0.91,-0.75 -1.4,-8.79 -0.96,-1.69 1.15,-1.94 -1.95,-4.1 z"
      title="Calabria"
      id="IT-78" />

    </a>
    <a class="italy-map__link" href="{{ '/regioni/campania/' | relative_url }}" aria-label="Campania">

      <path
      d="m 389.94021,463.57051 2.01,0.24 -0.69,0.92 -2.93,0.41 0.13,-1.63 1.48,0.06 z m -18.31,-13.47 4.41,1.2 0.53,0.77 -0.69,2.07 -2.82,0.03 -0.31,0.6 -1.98,-1.04 -0.04,-1.87 0.9,-1.76 z m 5.6,-47.67 1.52,0.77 -0.28,1.52 2.06,2.45 2.15,-0.48 1.3,0.86 -0.27,-2.42 -1.37,-1.67 2.2,-4.03 2.29,1.91 0.39,-1.38 3.45,0.06 0.21,0.85 1.77,0.01 0.27,1.02 2.03,1.09 8.01,2.34 0.38,1.59 1.19,0.91 3.34,-0.52 1.22,1.76 2.19,-1.95 1.05,-0.06 -0.04,-0.94 1.97,-0.24 0.94,0.74 1.88,-0.58 1.72,-2.89 4.01,1.7 1.57,-1.59 2.65,-0.22 2.98,-2.1 0,0 1.81,2.84 2.86,0.8 0.19,0.8 -0.82,0.78 0.54,1.2 -1.06,0.18 -0.84,1.17 0.62,2.62 2.97,1.06 0.21,2.17 3.42,-0.14 1.04,1.48 1.62,-0.32 1.26,1.43 -1.61,1.02 0.85,2.38 -2.02,1.2 -0.81,1.99 1.57,0.77 0.73,1.89 2.01,1.44 1.1,-0.9 2.83,1.19 1.7,-1.29 2.1,1.8 1.57,-0.14 3.6,1.8 0,0 1.37,3.97 -2.26,5.87 -2.96,1.29 0.23,1.16 -0.64,0.35 -4.79,-1.09 -0.44,0.67 1.02,0.51 -0.12,2.15 -2.1,0.15 2.06,1.27 -0.22,1.17 0.83,0.07 -0.17,4.85 5.93,3.85 -0.06,0.81 -1.66,1 -0.73,2.02 4.35,2.63 -0.69,0.82 1.35,3.21 -0.72,1.08 2.16,1.71 0.49,1.73 2.06,1.03 1.6,2.14 2.1,0.76 0.05,2.56 1.65,1.51 0.14,1.32 2.93,0.85 0.61,1.15 0.04,1.43 -0.93,0.83 0.52,1.23 -3.47,1.47 0.14,1 -1.61,1.65 0.32,2.91 -1.56,2.12 -1.2,0.34 1.27,1.37 -1.7,1.01 0,0 -0.86,-1.96 -2.78,-0.38 -3.58,0.94 -4.24,4.87 -3.39,-0.57 -2.03,-1.98 -2.21,0.55 -0.19,-0.63 0.86,-0.65 -0.69,-2.23 -3.31,-3.18 -1.48,-0.22 -2.51,-3.03 -4.68,0.06 -2.65,-3.3 -3.68,-1.14 -0.62,-1.06 1.98,-1.5 0.1,-4.01 2.61,-1.5 0.01,-2.94 -6.05,-12.56 -5.33,-5.6 -2.73,0.42 -1.36,2.13 -3.34,-0.97 -2.71,2.4 -2.35,0.41 -2.43,-1.33 -8.06,3.87 0.78,-4.1 3.16,-0.63 0.43,-1.47 3.58,-2.46 -1.08,-3.17 -3.1,-0.98 -3.54,-3.89 -2.76,-1.84 -2.65,1.11 -1.84,2.38 -1.47,-0.22 0.78,-0.38 -0.71,-1.02 -3.35,-0.96 -1.1,0.78 0.85,2.69 -2.25,-0.76 -0.01,-4.52 -1.12,-3.93 -2.65,-4.23 -0.06,-0.15 -2.41,-2.6 -1.4,-4.83 -3.56,-5.82 -3.19,-3.21 0,0 0.55,-1.32 3,-0.58 0.5,-0.77 -0.65,-0.24 0.1,-1.03 3.11,-1.11 -1.03,-4.47 0.82,-1.5 -1.32,-2.22 2.15,-0.37 3.05,-2.77 0.68,0.02 z"
      title="Campania"
      id="IT-72" />

    </a>
    <a class="italy-map__link" href="{{ '/regioni/emilia-romagna/' | relative_url }}" aria-label="Emilia-Romagna">

      <path
      d="m 314.31021,228.18051 -1.17,3.09 0.23,4.13 -2.52,0.99 -0.54,2.1 -2.92,-0.36 0.19,-1.04 -0.8,-0.31 -0.69,-2.51 -2.72,1.13 0,-2.14 -2.27,-1.32 0,0 1.13,-1.56 -0.32,-3.75 -3.7,2.48 -1.66,0.04 0.28,3.6 0,0 0,0 0,0 1.21,2.22 -1.62,-0.01 -0.34,-0.82 -1.99,0.79 -1.01,3.47 -2.6,2.09 -0.2,2.17 0,0 -0.04,-0.03 0,0 -1.64,0.89 -2.03,-0.37 -0.83,1.97 -1.55,-2.31 -1.44,0.8 -1.41,-0.16 0,0 -1.72,0.9 -1.11,-1.27 0,0 -0.92,0.25 -1.46,-0.9 -1.06,0.42 0,0 -1.63,-1.05 -0.21,-0.97 0,0 -1.35,-0.18 -0.52,-1.29 -4.66,-0.21 -2,-2.41 -3.58,-2 0.27,-3.06 -1.82,-1.22 0.33,-1.63 -2.17,-2.08 0.25,-1.15 0.67,0.09 -0.2,-1.09 1.68,-0.64 0.43,-1.99 2.03,-2.19 0.34,-2.69 -5.47,1.1 -2.65,-0.36 1.45,-2.1 -0.19,-1.04 -2.6,-0.53 -1.03,1 -1.2,-0.26 -1.73,-1.97 -1.39,-0.38 -0.34,-2.14 -1.33,-1.2 -2.46,2.39 -2.49,0.26 -0.2,1.07 -2.28,2.07 -3.99,0.14 -0.11,0.94 2.93,1.7 0.25,1.08 -2.54,0.16 -3.09,-0.89 -3.34,1.45 -2.76,-0.32 -1.55,-1.15 0.62,-1.04 -0.4,-0.91 -4.86,5.46 -0.66,-0.3 0.32,-0.95 -0.68,-0.91 -2.28,-0.5 -4.97,-4.03 -5.57,-0.13 -1,1.23 0.07,1.35 -1.67,0.42 -3.42,-3.05 -0.24,-1.55 -1.74,-1.6 0.05,-1.38 -1.22,-0.67 -1.67,0.29 -2.95,-3.04 -1.6,-0.03 -2.19,-1.23 -2.38,1.19 -5.63,-5.95 -2.44,0.51 -4.28,-2.94 -1.13,-1.26 0.54,-2.62 -1.05,-0.21 -0.5,-1.24 -2.43,-0.87 -5.35,0.59 -3.41,5.37 -3.6,2.09 0,0 -1.42,-3.32 -2.7,-1.99 -1.05,0.65 -1.41,-0.87 -0.35,0.96 -2.78,0.27 -0.94,1.13 -0.26,-1.17 -1.65,0.39 1.54,-4.51 1.32,-0.21 0.48,-3.42 -0.86,-2.09 -3.23,-1.11 -0.79,-1.73 -2.44,1.79 -3.15,-2.55 -0.44,1.05 -2.1,-0.35 0.34,-0.84 -0.59,-0.63 -2.26,0.44 0,0 -0.03,-5.08 0.49,0.19 0,0 1.75,-0.11 -0.32,-2.02 1.31,2.51 3.23,-0.85 -0.71,-1.39 0.89,-1.04 -0.15,-1.22 -1.74,-0.93 -0.3,-1.1 3.85,-3.88 -1.07,-3.25 -0.97,-0.82 -0.73,0.4 -1.75,-1.61 1.25,-1.64 -0.6,-1.02 1.66,-0.42 1.37,-4.05 1.64,-1.75 -0.12,-2.18 2.05,-1.84 -0.11,-0.67 1.23,0.18 0.32,-0.81 2.84,-0.72 1.57,1.86 1.13,-1.03 -0.63,-2.73 0.73,-0.12 1.6,2.14 1.28,-0.54 0.65,-1.91 0.92,1.25 -0.15,2.5 4.18,1.79 1.62,-1.42 0.5,-1.01 -0.75,-1.09 0.87,-0.27 0.83,1.54 1.85,0.95 0.37,1.86 0.93,-3.21 1,0.03 1.01,1.48 0.88,-0.39 0.2,-1.16 -1.13,-1.59 1.8,-1.46 0.73,0.61 -0.38,2.19 2.88,-2.21 0.89,0.09 1.88,2.45 -0.44,1.49 1.52,1.23 0.07,1.22 1.49,-0.35 0.8,1.74 3.33,-1.56 0.53,0.93 2.22,-0.06 3,2.37 1.6,0.04 2.83,2.27 2.45,-1.34 1.47,2.92 4.57,2.23 3.94,-0.17 1.45,-0.84 2.86,-4.12 0.45,1.62 1.8,-2.07 0.97,3.12 4.41,0.72 0.75,0.79 0.88,-0.16 0.08,0.75 1.34,-0.17 -0.2,0.58 1.46,-0.9 1.35,0.22 0.23,-1.15 2.32,-1.19 3.12,0.26 0.93,-0.79 2.65,0.64 1.22,1.55 0.55,-0.65 3.89,-0.31 0.36,-0.66 1.48,1.05 1.67,-1.59 6.23,0.92 0,0 0.16,1.49 5.7,-0.37 2.1,1.41 0.43,1.62 0.71,0.25 1.24,-0.12 2.02,-1.9 3.19,-0.89 0.74,-2.22 2.92,-1.36 6.27,0.08 2.21,-0.78 6.7,1.07 2.29,3.08 1.48,-0.97 0.81,1.05 2.15,0.17 1.46,-1.29 1.08,-0.01 0.83,1.08 -0.63,1.24 0.33,2.89 0.64,0.95 1.99,0.51 0.6,2.18 0,0 -0.65,0.17 -1.19,-1.84 -1.19,-0.36 -1.73,2.28 1.26,-0.5 -1.66,4.37 -0.59,4.98 0.48,3.31 1.96,3.83 -0.11,8.84 1.77,4.76 0.21,3.39 2.05,7.15 1.76,3.53 6.71,7.82 2.52,1.69 5.97,6.43 2.79,1.02 z m -29.42,11.31 -0.27,1.13 1.37,1.59 2.18,-1.12 -0.3,-1.1 0,0 -0.21,-0.47 -2.77,-0.03 z"
      title="Emilia-Romagna"
      id="IT-45" />

    </a>
    <a class="italy-map__link" href="{{ '/regioni/friuli-venezia-giulia/' | relative_url }}" aria-label="Friuli-Venezia Giulia">

      <path
      d="m 316.64021,34.280505 1.93,0.64 0,1.43 0.7,0.37 4.11,-0.3 6.15,1.19 1.94,-0.54 4.17,1.02 3.66,2.76 1.7,-0.71 2.55,0.71 1.18,-1.28 1.33,0.15 0.11,-0.91 1.84,0.52 -0.1,0.8 0.96,0.31 3.9,-0.7 0.77,1.44 2.21,-0.33 0.6,1.02 2.4,-0.29 4.98,1.57 -1.5,6.1 -1.9,-0.65 -2.92,0.74 -1.37,2.85 -4.88,2.76 -1.57,0.07 0.02,2.67 -3.36,2.08 2.47,4.57 -0.58,1.71 1.83,-0.18 -0.07,-0.92 1.81,0.06 0.99,0.71 1.43,-0.24 1.59,1.05 0.64,1.48 3.2,-0.5 1.42,0.81 -1.03,3.22 -3.57,3.45 -3.77,2.39 0.3,2.27 -1.57,1.61 3.05,2.85 1.64,-0.23 1.33,-1.49 2.58,0.34 -0.28,3.48 -3.14,6.06 1.04,3.26 1.33,0.89 2.38,-0.38 3.98,3.37 2.52,0.670005 3.6,6.29 2.79,2.03 -4.12,3.68 -2.16,0.14 -2.47,-1.3 -1.5,0.37 -0.09,-0.93 0.78,-0.42 2.71,0.85 1.21,-0.96 -1.43,0.05 -0.46,-1.56 -1.01,0.22 -0.59,-0.66 1.23,-0.94 -0.72,-2.06 -6.15,-6.590005 -2.5,-0.73 -1.13,0.37 -0.56,-0.8 -1.37,1.48 -0.19,1.660005 1.76,1.42 -3.36,1.62 -0.8,-0.27 -2.12,2.06 -2.42,0.23 -5.13,-2.76 -1.84,-0.3 -0.31,0 -0.09,-0.07 -4.23,1.12 -2.88,4.42 0,0 -1.07,-0.6 0.12,-0.61 -0.98,0.12 0.17,-1.32 -1.01,-0.8 0.37,-0.8 -0.79,-0.2 -0.57,-2.67 -0.97,0.71 0.35,-1.17 -0.65,-1.300005 0.49,-0.26 -2.03,-1.93 1.09,-0.64 -0.82,-0.34 0.18,-0.82 -0.39,-0.37 0.04,-0.31 -0.58,-1.58 -0.59,0.24 0.45,1.42 -1.55,0.5 -0.49,-1.09 -1.52,0.94 -1.25,-1.14 0.4,-1.1 -0.64,-0.07 -2.17,1.09 -0.55,1.04 -0.63,-0.73 0.43,-1 -1.13,-0.84 -1.98,2.1 -0.67,-0.67 -3.88,3.59 -0.05,-1.62 -1.12,-0.52 -0.12,-0.89 -1.24,-0.66 -0.68,1.61 -2,-1.05 0.22,-1.2 -1.39,-1.26 -1.26,-4.53 -1.48,-0.01 -1.04,-1.51 -1.43,-0.04 -0.02,-3.47 -0.71,-2.6 -0.92,-0.8 1.77,-2.81 2.9,-1.96 0.45,-3.58 -2.42,-1.95 -0.3,-2.13 -1.83,0.1 -0.26,-1.58 -2.08,0.02 -2.12,-2.85 1.8,-1.88 -0.04,-1.99 1.04,-0.84 1.91,0.27 0.33,-2.02 1.83,-0.93 -0.18,-0.6 0.6,0.27 -0.32,-1.38 2,-1.76 0.28,-1.75 1.48,-2.04 0.41,0.43 1.57,-1.25 1.85,0.79 1.04,-0.79 1.82,0.78 -0.39,-1.74 -1.23,-0.8 0.12,-0.94 3.46,-2.18 2.55,-0.06 -0.88,-1.16 0.7,-2.27 -0.97,-1.66 0.19,-1.8 0,0 1.65,-0.91 1.75,0.65 z"
      title="Friuli-Venezia Giulia"
      id="IT-36" />

    </a>
    <a class="italy-map__link" href="{{ '/regioni/lazio/' | relative_url }}" aria-label="Lazio">

      <path
      d="m 325.37021,439.63051 -0.25,1.32 0.57,0.19 -1,1.15 -0.18,-2.82 2.24,-1.01 -1.38,1.17 z m 51.61,-39.34 1.01,0.85 -0.76,1.3 -0.75,-0.03 -3.04,2.77 -2.15,0.37 1.32,2.22 -0.81,1.5 1.03,4.47 -3.11,1.12 -0.1,1.03 0.65,0.24 -0.5,0.77 -3,0.58 -0.55,1.32 -2.81,-2.02 -1.22,0.6 -2.81,-1.15 -2.95,1.66 0.11,1.46 0.9,0.6 -2.04,0.07 -8.94,-5.21 -4.34,-1.04 -1.64,1 -2.32,-0.12 -2.92,0.93 -3.31,3.15 -2.41,-0.19 -2.93,-6.73 -3.66,-3.89 -3.6,-1.99 -3.37,-0.34 -0.81,0.63 -4.82,-3.23 -1.7,0.28 -0.14,0.71 -0.87,-0.37 -3.32,-5.86 -7.08,-8.45 -3.68,-3.12 -6.21,-2.83 -0.93,-5.9 -3.13,-5.75 -4.83,-2.83 -1.3,-1.94 -2.56,-0.98 -0.57,-1.21 -2.34,-1.48 -4.27,0.63 -1.67,-3.89 -3.04,-4.01 -0.18,-1.88 -2.12,-4.27 -2.25,-3.16 -5.44,-4.43 -5.13,-2.45 1.86,-4.15 6.8,-0.08 -0.09,-3.43 -2.79,-1.91 1.37,-1.94 -0.45,-1.76 0.62,-0.33 1.14,1.05 0.67,-0.89 0.81,0.23 1.74,-0.88 0.21,-1.08 1.5,-1.11 1.29,0.25 0.91,-2.14 1.37,0.19 1.4,-0.92 -0.08,-1.08 -1.05,-0.48 -0.41,-2.62 1.23,0.01 1.04,-2.36 -3.78,-2.96 1.16,-2.44 1.21,0.47 0.7,1.32 0.51,-2.01 1.63,-1.07 2.48,0.14 1.62,3.89 2.78,1.8 -1.01,1.98 -1.85,1.04 1.29,2.11 4.14,2.56 3.68,-1.31 1.01,1.07 0.12,-0.75 0.67,0.22 1.38,-1.19 1.63,0.68 1.67,2.06 0.55,4.47 1.67,0.78 -0.21,1.96 1.04,0.85 -0.75,0.67 1.52,0.8 -0.69,0.46 1.87,-0.21 1.23,1.26 2,-1.62 1.47,0.16 -0.25,1.86 0.74,0.68 -0.68,0.23 -0.01,2.06 2.29,0.8 -0.97,1.42 3.64,-0.52 -0.05,1.68 0.87,1 4.33,-3.36 0.22,-3.88 1.19,-0.08 0.89,1.86 1.21,-0.05 2.99,-1.97 -1.37,-2.04 3.06,-0.88 0.17,-1.33 2.05,0.1 1.85,-1.63 2.09,-0.67 -0.62,-2.55 0.58,-1.17 2.02,0.99 0.8,-0.97 3.25,0.04 0.71,-1.53 2.06,1.08 2.8,-1.72 0.05,-0.78 1.62,0.64 1.33,-1.28 0.75,-4.45 3.28,0.79 0.54,-1.17 1.09,-0.1 3.68,3.16 -0.54,1.69 1.15,1.36 1.99,0.63 -0.76,3.44 -1.35,1.17 -2.26,-0.32 -1.5,0.77 -0.58,-0.97 -1.35,-0.01 -0.61,0.73 -2.75,-1.03 -0.76,2.76 -1.03,0.57 1,1.86 0.1,2.38 -3.18,2.42 3.99,3.74 -2.09,2.34 3.74,2.47 0.65,3.29 2.58,2.54 2.42,0.83 0.3,1.63 1.94,1.22 -1.83,0.33 0.52,0.7 -1.49,0.29 -1.07,2.23 -1.69,-0.62 -1.24,0.77 -6.56,-3.53 -1.73,0.13 -0.05,2.4 -2.08,1.78 -0.77,-0.36 -0.15,4.92 1.4,2.25 2.39,0.64 0.02,-1.24 2.03,0.72 7.65,4.49 0.89,-0.37 1.98,2.28 1.02,-0.19 1,1.41 -1.28,2.29 1,3.63 1.4,-1.36 1.73,0.7 1.48,1.43 1.84,0.43 0.74,1.81 1.48,0.93 4.05,-1.36 1.07,-2.09 1.77,0.49 1.07,1.18 1.33,-0.73 1.75,3.31 1.33,0.4 1.02,-0.66 2.4,1.42 1.96,-0.19 2.5,3.27 1.99,1.72 1.4,3.59 0.1,1.37 -0.68,0.64 1.37,1.51 -0.22,0.95 -0.85,0.18 1.22,1.06 -2.93,2.01 z m -77.65,-27.89 -0.04,-0.08 0.01,-0.18 -0.11,-0.11 -0.09,0.03 -0.17,0.04 -0.16,0.26 -0.03,0.06 0.07,0.08 0.06,-0.02 0.26,0.06 0.2,-0.08 0,-0.06 z"
      title="Lazio"
      id="IT-62" />

    </a>
    <a class="italy-map__link" href="{{ '/regioni/liguria/' | relative_url }}" aria-label="Liguria">

      <path
      d="m 165.81021,222.60051 -0.4,0.99 -0.62,-0.99 1.02,0 z m -109.83,-1.17 0.79,0.27 1.55,-1.67 -1.31,0.02 -0.91,-1.44 0.47,-1.54 1.94,-1.07 9,2.88 1.64,-0.87 1.96,0.69 0.44,-0.73 -0.56,-0.87 -1.31,-0.61 1.84,-1.52 1.53,1.02 1.42,-0.49 1.18,-1.54 -0.05,-1.94 -1.46,-1.28 0.73,-1.7 -0.86,-1.1 1.25,-1.23 -1.27,-1.31 0,-1 0.43,-0.54 1.46,0.65 0.3,-2.17 1.29,0.16 0.98,-1.61 -0.24,-1.99 3.19,-1.76 0.75,-1.93 -1.37,-3.28 1.38,-0.45 -0.04,-1.9 1.55,-1.24 0.98,1.53 1.85,0.19 3.08,2.61 1.31,-0.71 0.56,-2.2 0.81,-0.38 1.47,1.05 1.14,-1.71 0.35,0.86 3.2,-0.12 1,0.75 2.74,-3.03 -0.79,-0.91 1.23,-1.93 3.56,0.2 1.62,0.24 1.79,2.94 -0.3,0.9 0.86,-0.04 0.38,2.2 1.27,-0.46 -0.36,-1.48 1.74,-1.46 -0.02,-1.47 2.28,-0.29 0.88,1.18 1.44,-0.77 -0.3,-3.72 -1.44,-1.56 1.56,-1.26 0.64,-1.66 1.61,-0.24 0.72,1.02 2.28,-0.25 1.6,3.43 1.44,-0.29 1.46,0.85 -0.05,1.48 1.63,1.21 3.52,-1.46 -0.06,-1.46 0,0 2.26,-0.44 0.6,0.63 -0.34,0.84 2.1,0.35 0.44,-1.05 3.15,2.55 2.44,-1.79 0.79,1.73 3.23,1.11 0.86,2.09 -0.48,3.42 -1.32,0.21 -1.54,4.51 1.65,-0.39 0.26,1.17 0.94,-1.13 2.78,-0.27 0.35,-0.96 1.42,0.87 1.05,-0.65 2.7,1.99 1.42,3.32 0,0 1.32,-0.19 1.01,2.58 4.03,3.13 2.59,1.06 0.09,2.57 0.81,0.7 -0.43,2.73 2.08,-1.75 1.47,1.02 -0.75,0.06 -1.24,1.98 3.93,-0.13 0.2,2.36 0.94,1.39 -0.49,1.23 1.78,-1.5 2.37,1.47 -0.27,1.38 -2.22,2.55 0,0 -1.58,-0.27 -1.19,0.87 -2.95,-2.2 0.05,-0.92 -1.35,-0.01 -1.99,-2 -1.29,0.79 1.3,1.62 -0.24,0.59 0.75,-0.13 -1.05,1.4 -4.76,-3.11 -1.9,-2.46 -2.44,-1.28 -1.12,0.82 -1.35,-2.56 -2.04,-0.9 -0.91,-1.69 -2.12,-0.8 -0.93,-1.42 -2.36,-0.08 -1.4,-1.45 -0.66,0.47 -1.62,-2.79 -7.03,-3.96 -1.09,1.04 0.12,2.41 -3.64,-1.69 0.52,-1.78 -0.69,-0.96 -10.67,-2.7 -0.65,-1.06 -0.59,0.44 0.41,0.67 -4.54,-1.23 1.17,-0.21 -0.92,-0.37 -2.38,-0.11 0.27,0.52 -2.06,-0.48 -2.07,0.8 -1.53,1.47 -1.83,0.35 -1.47,1.54 -5.94,3.02 -0.77,1.01 0.7,-0.14 -3,2.75 0.76,1.01 -1.92,2.55 0.38,2.04 -8,4 -1.99,3.46 -0.27,3.34 -3.14,3.53 -0.22,1.41 0.74,1.36 -4.29,2.89 -0.91,1.67 -2.31,0.5 -4.2,2.75 -4.44,0.9 -1.44,1.21 -1.54,-0.46 -3.33,1.96 -1.81,-0.3 -1.53,1.59 -4.69,-1.07 -1.24,1.01 -1.02,-0.22 -2.15,-5.17 0.09,-1.54 0.75,-0.94 2.45,-0.75 0.38,-3.17 4.37,-2.29 0.79,-1.75 -0.25,-2.12 2.17,-0.93 0.29,-1.73 z"
      title="Liguria"
      id="IT-42" />

    </a>
    <a class="italy-map__link" href="{{ '/regioni/lombardia/' | relative_url }}" aria-label="Lombardia">

      <path
      d="m 186.10021,35.650505 0.52,0.58 -0.91,1.44 0.26,1.12 2.07,0.38 0.48,1.55 2.24,0.59 0.66,-1.01 2.23,0.88 1.1,-0.48 1.91,1.48 0,0 1.15,2.7 3.77,0.3 2.64,1.77 1.03,1.36 -0.23,2.19 0.84,1.39 -1.49,1.56 -1.97,0.11 -2.58,2.55 2.64,1.27 0.6,2.02 -0.89,1.27 0.81,0.47 0.52,2.14 -2.28,4.16 1.07,1.59 -0.94,4.43 -3.33,4.07 0.36,1.9 -1.19,0.94 -0.57,1.83 0.05,1 1.74,0.32 -0.16,2.03 1.3,1.99 -0.91,2.1 0.52,4.31 2.25,0.95 -0.71,1.37 0.42,0.87 1.32,0.13 2.14,-1.33 1.98,-0.07 0.47,-2.15 4.01,-0.81 1.27,0.98 0.39,-0.86 3.97,0.77 0,0 -11.09,16.500005 1.13,11.75 -0.4,1.98 0.84,0.18 0.7,-0.81 2.46,1.13 -0.96,2.57 0.96,0.75 -1.3,0.98 1,1.49 -0.68,1.91 1.49,0.39 0.51,0.99 2.41,-2 1.96,1.93 1.12,2.35 2.64,0.59 0.11,0.68 1.83,0.48 -0.1,1.3 2.87,1.3 0.8,1.22 -0.38,1.71 1.61,-0.32 0.87,0.55 -0.96,1.88 2.32,1.95 1.2,0.22 0.24,-1.27 1.36,0.73 0.93,-1.68 3,1.12 -1.27,1.02 0.41,1.01 -0.59,1.62 3.13,1.16 1.43,-0.85 0.01,2.46 7.98,4.28 0.23,1.03 0,0 -6.23,-0.92 -1.67,1.59 -1.48,-1.05 -0.36,0.66 -3.89,0.31 -0.55,0.65 -1.22,-1.54 -2.65,-0.64 -0.93,0.79 -3.12,-0.26 -2.32,1.19 -0.23,1.16 -1.35,-0.22 -1.46,0.9 0.2,-0.58 -1.34,0.17 -0.08,-0.75 -0.88,0.16 -0.75,-0.79 -4.41,-0.71 -0.97,-3.12 -1.8,2.07 -0.45,-1.62 -2.85,4.12 -1.45,0.84 -3.94,0.17 -4.57,-2.23 -1.47,-2.92 -2.45,1.34 -2.83,-2.27 -1.6,-0.04 -3,-2.37 -2.22,0.07 -0.53,-0.92 -3.33,1.56 -0.79,-1.73 -1.49,0.35 -0.07,-1.22 -1.52,-1.23 0.44,-1.49 -1.88,-2.45 -0.89,-0.09 -2.88,2.22 0.38,-2.19 -0.73,-0.61 -1.8,1.46 1.13,1.59 -0.19,1.16 -0.88,0.39 -1.01,-1.48 -1,-0.03 -0.93,3.21 -0.37,-1.86 -1.85,-0.95 -0.82,-1.54 -0.87,0.27 0.75,1.09 -0.5,1.01 -1.62,1.42 -4.18,-1.79 0.15,-2.5 -0.92,-1.25 -0.65,1.91 -1.28,0.54 -1.6,-2.14 -0.73,0.12 0.63,2.73 -1.13,1.03 -1.57,-1.86 -2.83,0.72 -0.32,0.81 -1.23,-0.18 0.11,0.67 -2.04,1.84 0.12,2.18 -1.63,1.75 -1.37,4.05 -1.66,0.42 0.6,1.02 -1.25,1.64 1.75,1.61 0.73,-0.4 0.97,0.82 1.07,3.25 -3.85,3.88 0.3,1.1 1.74,0.93 0.15,1.22 -0.89,1.04 0.71,1.4 -3.23,0.86 -1.31,-2.51 0.32,2.02 -1.75,0.11 0,0 -0.37,-2.85 0.63,-2 -2.27,-1.68 -0.47,-2.93 -2.72,0.75 -0.45,-0.78 -1.46,-0.12 0.12,-0.94 -1.16,-1.17 0.94,-1.01 -0.73,-1.98 -1.02,0.12 -1.68,-1.49 -1.55,-2.55 0.24,-1.73 -0.73,-1.29 -0.47,-0.44 -1.32,0.62 -1.29,-1.75 -0.29,-3.2 -2.91,0.23 -1.62,1.61 -1.64,0.18 -0.25,1.03 -1.28,-0.17 -0.17,-1 -1.12,0.16 -0.39,-1.16 -0.46,1.76 -3.32,-1.92 -0.29,-3.52 -1.42,-1.3 0.35,-1.3 -1.12,-0.31 -0.59,-1.49 -1.43,-0.43 -0.55,-0.98 1.79,-2.57 -2.17,0.96 -0.5,-0.39 1.19,-0.43 -1.25,-1.17 0.94,-0.85 -0.57,-0.41 1.26,-0.16 -1.61,-0.53 -0.02,-0.49 0.97,0.13 -0.31,-1.77 -2.01,-1.04 0.73,-1.49 1.35,-0.46 -0.6,-1.79 1.5,-1.38 1.18,1 2.78,-0.11 0,0.91 1.13,0.74 0.49,2.55 1.47,-0.11 1.1,-0.59 0.56,-2.1 1.88,-1.2 -2.17,-2.32 1.51,0.28 1.17,-0.8 1.57,0.44 2.13,-1.08 -0.93,-2.79 -0.89,0.06 -1.15,-3.9 -3.51,-1.81 -1.29,-4.92 0.44,-1.71 -1.93,-1.64 -0.32,-1.26 1.52,0.31 -0.81,-1.84 0.37,-1 -2.03,-0.4 0.55,-2.66 -3.05,-0.91 -2.02,-3.820005 0.06,-1.49 2.08,-2.35 -1.28,-4.95 8.05,-8.76 -1.01,-4.55 0.63,-1.61 0,0 1.21,-1.33 0.85,1.4 1.26,0.65 1.22,-0.52 2.36,1.93 0.03,1.11 -1.05,0.63 -2.48,4.44 2.35,0.03 1.94,2.04 1.42,0.33 0.04,1.68 2.47,4.88 -1.75,2.63 2.32,-0.87 2.1,0.78 -0.34,1 2.33,0.08 0.74,-3.66 2.04,-2.17 -0.74,-0.1 -0.82,-1.6 -2.06,-0.54 -0.26,-2.26 -1.22,-0.7 1.89,-1.73 -1.13,-3.27 0.54,-1.04 3.03,-1.09 0.6,-1.63 -0.79,-2.42 2.42,-1.19 2.14,-2.44 1.06,-0.07 2.03,-4.69 1.46,-0.15 0.17,-2.39 2.34,-4.37 -0.11,-2.05 -1.08,-1.21 0.27,-3.23 -1.66,-2.08 1.34,-1.14 0.18,-2.89 4.4,-0.99 0.62,1.79 1.88,1.31 1.26,-2.4 1.45,-0.71 -0.24,1.46 -0.69,0.26 0.98,0.59 -0.12,7.65 1.89,0.63 1,3.01 1.52,1.82 0.46,-0.38 3.87,1.56 2.14,-1.21 1.8,0.76 1.41,-4.28 2.11,1.1 6.62,-3.38 0.96,1.1 1.39,-1 2.26,2.05 -0.77,2.15 1.04,0.67 -0.12,2.19 2.92,1.49 -0.53,2.56 1.22,0.85 1.1,-0.77 1.63,0.29 2.76,-2.36 -1.09,-2.62 -2.56,-2.99 0.13,-1.5 1.08,-0.69 0.52,-1.77 1.19,-0.24 0.21,-1.52 -0.9,-0.2 -0.36,-1.24 -3.12,0.55 -2.1,-1.73 0.7,-1.51 -0.57,-1.05 0.61,-3.01 -0.51,-1.49 2.88,-3.11 0.1,-2.17 1.41,0.38 3.03,-1.55 1.31,0.64 1.23,-1.24 0.47,1.16 z"
      title="Lombardia"
      id="IT-25" />

    </a>
    <a class="italy-map__link" href="{{ '/regioni/marche/' | relative_url }}" aria-label="Marche">

      <path
      d="m 359.22021,257.90051 -2.77,-1.61 -1.18,-2.32 -2.08,-1.73 -0.84,1.52 -2.06,-0.25 -7.56,-4.21 -20.49,-17.97 -5.49,-2.9 -2.43,-0.24 0,0 -1.17,3.09 0.23,4.13 -2.52,0.99 -0.54,2.1 -2.92,-0.36 0.19,-1.04 -0.8,-0.31 -0.69,-2.51 -2.72,1.13 0,-2.14 -2.27,-1.32 0,0 -0.4,1.35 -3.82,-0.43 0,0 -0.04,-0.1 0,0 1.21,2.22 -1.62,-0.01 -0.34,-0.82 -1.99,0.79 -1.01,3.47 -2.6,2.09 -0.2,2.17 0,0 0.13,0.1 0,0 2.15,0.86 2.29,3.08 -2.1,0.02 0.3,2.18 -0.92,-0.06 -0.61,-3.72 -0.44,3.12 -1.23,0.66 -1.46,-0.28 0.2,0.81 -0.94,1.05 -2.31,0.83 1.45,2.23 0,0 0.71,1.17 3.09,-0.04 0.35,0.56 2.08,-1.68 1.88,-0.12 -0.51,0.78 0.48,1.44 -2.92,2.7 1.36,1.42 1.43,-0.73 1.27,1.73 1.42,-2.09 0.99,0.13 0.83,1.42 0.92,0.05 0.29,-0.86 0.91,0.42 6.36,7.29 2.13,-1.29 2.23,0.82 1.32,-2.69 2.08,0.56 -0.37,2.01 0.9,0.84 -1.8,1.69 0.05,0.84 2.27,2.96 0.38,2.91 -0.62,0.7 1.88,1.34 0.67,3.42 1.39,0.69 -0.14,2.9 -1.62,1.55 0.67,1.54 2.07,0.42 0.57,1.71 -0.24,2.77 0.75,2.11 -0.87,0.66 0.94,1.95 -0.56,1.49 2.69,1.61 0.2,0.87 1.11,0.13 0.12,4.04 1.21,-1.36 0.02,-1.71 1.3,0.77 1.4,-1.39 3.01,2.3 2.5,3.94 2.67,-0.61 1.25,-1.82 1.41,3.62 -0.25,1.82 -0.92,1.9 -0.38,-0.77 -1.92,0.78 -0.25,2 0,0 3.28,0.79 0.54,-1.17 1.09,-0.1 3.68,3.16 0,0 1.67,0.49 1.88,-1.33 0.56,0.46 0.6,-2.38 2.37,-0.39 0.3,-2.49 1.33,-1.48 0.25,-1.45 2.08,1.14 2.36,-1.11 0.67,0.95 1.35,-0.17 2.01,-0.94 0.46,-2.21 0.68,-0.38 2.78,-0.19 2.12,-1.41 4.99,-1.07 0,0 -2.2,-6.7 -1.54,-8.13 -11.26,-27.91 0.17,-3.25 z m -61.18,-3.24 -0.74,-0.26 0,0 -0.19,-0.06 0,0 0.32,-0.7 0.57,0.33 0,0 0.1,0.53 0,0 -0.06,0.16 z"
      title="Marche"
      id="IT-57" />

    </a>
    <a class="italy-map__link" href="{{ '/regioni/molise/' | relative_url }}" aria-label="Molise">

      <path
      d="m 419.07021,361.33051 5.44,2.89 4.99,0.93 3.97,4.34 3.16,1.23 0,0 0.21,3.27 -2.13,3.07 0.82,2.93 -0.96,1.59 1,1.22 -0.75,0.52 1,1.49 1.86,0.85 -2.05,1.02 -0.68,1.5 -0.77,-0.77 -0.03,0.82 -2.09,0.91 -1.32,2.42 -3.24,-1.5 -1.25,1.52 0.91,0.8 -0.71,5.58 1.56,0.67 1.99,2.3 0,0 -2.98,2.1 -2.65,0.21 -1.58,1.6 -4.01,-1.71 -1.72,2.9 -1.88,0.58 -0.94,-0.74 -1.97,0.23 0.04,0.94 -1.05,0.07 -2.19,1.95 -1.22,-1.76 -3.34,0.52 -1.19,-0.91 -0.38,-1.59 -8.01,-2.34 -2.03,-1.09 -0.26,-1.01 -1.78,-0.01 -0.2,-0.84 -3.45,-0.07 -0.39,1.38 -2.29,-1.91 -2.2,4.03 1.38,1.67 0.27,2.42 -1.3,-0.86 -2.15,0.48 -2.06,-2.45 0.28,-1.52 -1.52,-0.77 0,0 0.76,-1.29 -1.01,-0.85 2.86,-2.06 -1.22,-1.06 0.85,-0.18 0.21,-0.95 -1.37,-1.51 0.68,-0.63 -0.1,-1.37 -1.4,-3.59 -1.99,-1.72 0,0 2.1,-0.52 1.87,0.98 0.28,-1.46 1.33,-0.05 0.87,-2.4 1.16,-0.09 0.79,2.07 0.63,-2.64 1.99,-0.05 0.67,-1.24 0.25,1.01 0.85,0.13 0.42,-1.03 -1.52,-0.89 -1.25,-3.55 0.42,-0.9 2.22,-0.15 1.43,-2.22 2.91,-2.38 0.94,1.26 1.24,-0.13 0.98,2.19 0.57,0.22 1.05,-1.32 2.44,1.62 1.1,1.07 1.07,4.29 -0.79,0.64 2.04,0.37 4.76,-5.13 1.72,-3.73 2.36,-1.66 0.82,-3.1 2.3,-2.84 2.84,-1.96 -0.91,-0.84 1.17,-1.85 0,0 z"
      title="Molise"
      id="IT-67" />

    </a>
    <a class="italy-map__link" href="{{ '/regioni/piemonte/' | relative_url }}" aria-label="Piemonte">

      <path
      d="m 93.25021,47.140505 1.55,1.57 -0.62,1.52 0.74,1.97 -0.36,4.74 -1.95,2.55 1.5,2.49 -0.66,1.18 1.42,1.27 3.05,1 2.2,3.99 1.48,0.63 -0.31,1.06 0.76,1.38 1.81,-0.06 2.02,1.55 1.64,-0.13 0,0 -0.63,1.61 1.01,4.55 -8.05,8.76 1.28,4.96 -2.08,2.35 -0.06,1.5 2.02,3.820005 3.05,0.91 -0.55,2.65 2.03,0.4 -0.37,1 0.81,1.85 -1.53,-0.32 0.32,1.27 1.93,1.63 -0.44,1.71 1.29,4.92 3.51,1.81 1.15,3.9 0.89,-0.06 0.93,2.79 -2.13,1.08 -1.58,-0.43 -1.17,0.8 -1.51,-0.29 2.17,2.32 -1.88,1.2 -0.56,2.1 -1.1,0.59 -1.47,0.11 -0.49,-2.55 -1.13,-0.74 0.01,-0.91 -2.78,0.11 -1.19,-1 -1.49,1.38 0.6,1.79 -1.36,0.46 -0.72,1.49 2.01,1.04 0.31,1.77 -0.98,-0.13 0.02,0.48 1.62,0.53 -1.26,0.16 0.57,0.42 -0.95,0.85 1.25,1.17 -1.19,0.43 0.5,0.39 2.17,-0.96 -1.79,2.57 0.55,0.98 1.43,0.44 0.59,1.49 1.12,0.31 -0.36,1.3 1.43,1.29 0.29,3.53 3.31,1.91 0.46,-1.75 0.4,1.15 1.12,-0.16 0.18,1.01 1.28,0.16 0.25,-1.02 1.64,-0.18 1.62,-1.61 2.91,-0.24 0.29,3.21 1.29,1.75 1.32,-0.62 0.46,0.44 0.73,1.29 -0.24,1.73 1.55,2.55 1.68,1.49 1.02,-0.12 0.72,1.99 -0.94,1.01 1.16,1.17 -0.12,0.94 1.45,0.13 0.45,0.78 2.72,-0.75 0.47,2.93 2.27,1.68 -0.62,2 0.37,2.85 0,0 -0.5,-0.19 0.03,5.08 0,0 0.06,1.45 -3.52,1.47 -1.62,-1.21 0.05,-1.48 -1.46,-0.85 -1.44,0.29 -1.6,-3.43 -2.28,0.25 -0.72,-1.02 -1.61,0.24 -0.63,1.66 -1.57,1.26 1.44,1.56 0.3,3.72 -1.44,0.78 -0.87,-1.19 -2.28,0.3 0.03,1.47 -1.74,1.46 0.36,1.48 -1.27,0.47 -0.39,-2.2 -0.86,0.03 0.3,-0.9 -1.79,-2.94 -1.62,-0.23 -3.55,-0.21 -1.23,1.93 0.79,0.91 -2.74,3.04 -1,-0.75 -3.21,0.12 -0.34,-0.86 -1.14,1.71 -1.47,-1.04 -0.8,0.38 -0.56,2.2 -1.31,0.71 -3.08,-2.61 -1.85,-0.19 -0.98,-1.52 -1.55,1.24 0.04,1.89 -1.38,0.46 1.37,3.27 -0.75,1.93 -3.18,1.76 0.23,2 -0.98,1.61 -1.29,-0.16 -0.3,2.18 -1.46,-0.65 -0.42,0.54 0,1 1.27,1.31 -1.25,1.23 0.86,1.1 -0.74,1.71 1.46,1.27 0.05,1.94 -1.18,1.55 -1.42,0.49 -1.53,-1.02 -1.84,1.51 1.31,0.62 0.56,0.87 -0.43,0.73 -1.97,-0.69 -1.63,0.88 -9,-2.88 -1.94,1.08 -0.47,1.54 0.91,1.44 1.31,-0.02 -1.55,1.67 -0.8,-0.27 0,0 0.06,-1.49 -2.44,-3.29 0.9,-3.11 -2.48,-0.1 -0.88,1.91 -2.9,-0.48 -5.18,2.19 -1.55,-0.35 -0.32,1.3 -1.64,-0.93 -1.83,0.69 -0.72,-2.18 -3.26,0.38 -1.82,-2.21 -1.33,0.22 -1.55,-2.32 -1.32,-0.44 -0.95,0.52 -3.04,-2.06 -2.68,0.39 -1.26,-0.86 -0.62,-3.17 -1.95,-1.13 0.18,-1.02 -1.68,-1.55 -0.23,-1.34 -1.82,-0.83 0.28,-4.23 2.86,-0.56 -3.61,-3.63 -1.12,-3.63 1.13,-1.7 1.6,-0.17 1.18,-1.16 0.88,-3.18 0.93,-0.08 -0.98,-2.4 0.71,-1.73 1.29,-0.98 4.58,0.29 -0.48,-1.88 -1.85,-1.09 -0.55,-3.22 -1.06,-1.16 1.16,-2.47 -0.86,-1.14 -3.58,-1.65 -1.3,1.3 -2.4,-0.46 -3.0799999,-2.09 -0.16,-0.89 -2.53,-0.99 0.2,-2.08 -0.58,-0.35 1.08,-1.54 -1.4,-2.18 0.69,-0.55 -0.34,-1.16 -3.63,-0.41 -0.62,-3.75 -0.92,-0.26 -0.88000002,-2.19 2.38000002,-1.48 0.4,-1.08 3.17,0.18 1.31,-1.56 4.0799999,1.71 0.09,0.64 2.26,-0.69 0.01,-2.3 2.69,-0.1 0.42,-1.51 2.41,-2.12 1.29,0.21 1.23,-0.74 0.97,1.13 2.14,-2.62 0.73,0.1 0.53,-2.63 -1.27,-3.28 0.98,-0.18 0.41,-1.54 1.32,-0.69 0.01,-1.47 1.24,-1.8 -3.74,-2.01 -0.62,-2.45 0,0 1.77,-3.56 0.36,2.85 0.9,-0.68 3.07,1.07 2.39,-3.01 2.8,-0.07 1.88,-0.89 0.96,0.67 3.54,-2.84 0.93,-1.57 1.23,-0.39 1.85,0.47 2.08,-1.13 2.01,1.25 0.13,0.87 1.41,-0.66 1.97,1.3 2.32,-0.38 0.68,0.61 4.89,-3.47 2.64,-0.2 1.01,0.65 0.73,-3.04 1.2,-0.24 -1.82,-3.73 1.66,-2.83 -0.36,-1.2 -1.62,-0.600005 -1.71,-3.1 0.7,-5.05 -0.7,-4.06 0,0 0.72,-0.68 0.1,-3.63 1.47,-1.58 4.15,0.12 1.11,-1.17 0.12,-1.52 1.16,-0.83 -0.67,-2.11 0.54,-1.99 3.72,-0.87 0.56,-1.43 1.91,-1 -0.12,-1.49 0.79,-1.14 -1.37,-3.28 -1.47,-1.81 -1.71,-0.8 3.19,-3.17 1.45,0.44 2.19,-0.87 0.74,-1.93 1.92,-0.85 0.03,-1.35 2.38,-0.99 0.47,-1.5 -1.45,-0.7 0.78,-1.24 1,-0.08 1.99,-1.92 z"
      title="Piemonte"
      id="IT-21" />

    </a>
    <a class="italy-map__link" href="{{ '/regioni/puglia/' | relative_url }}" aria-label="Puglia">

      <path
      d="m 481.74021,369.18051 3.85,0.75 4.91,3.74 -0.67,1.54 1.26,2.39 -0.08,1.6 -0.39,1.97 -1.36,1.36 -4.73,3.16 -0.29,1.08 -8.39,5.25 0.15,5.69 2.5,4.73 3.46,2.51 9.37,4.34 2.98,2.34 8.1,3.05 8.43,5.09 9.93,3.16 1.66,1.43 1.8,0.05 0.45,0.75 0.94,-0.41 0.25,0.73 4.19,1.82 6.85,2.24 9.64,6.31 3.63,4.43 2,0.91 4.56,4.29 11.81,4.74 6.2,4.3 5.61,0.67 1.12,1.85 -0.49,0.85 3.59,0.12 -0.33,1.09 1.56,1.93 -0.54,2.04 2.25,2.78 2.38,2.17 5.88,3.28 9.38,10.06 2,4.46 -0.23,1.76 1.55,3.62 1.42,0.87 -0.51,0.48 0.59,1.65 -1.72,1.58 -0.49,2.38 -1.99,1.38 -1.44,3.17 -0.88,4.56 0.03,6 -1.11,1.56 -1.21,0.32 -3.83,-2.96 -5.1,-1.07 -6.43,-5.23 -2.72,-4.74 1.21,-0.5 -0.18,-1.95 -2.08,-1.12 1.51,-1.11 0.41,-2.5 -4.61,-5.73 0.33,-1.91 -1.02,-2.19 -2.52,-2.09 -9.07,-1.33 -8.78,0.68 -3.15,-2.28 -2.7,-0.29 -8.68,-5.02 -1.12,0.03 0.3,-0.91 1.92,-0.84 0.22,-1.48 -1.35,-1.64 -2.29,0.11 -0.58,-1.62 -2.85,-1.07 -3.82,0.57 -3.5,1.9 -3.57,3.16 -2.13,3.51 0,0 -0.78,-1.86 -1.75,-1.47 -0.36,-1.62 -1.77,-1.07 -1.7,0.44 -0.86,-0.95 0.96,-2.08 -1.16,-0.88 0.44,-0.81 -0.96,-1.01 0.43,-2.89 0.63,-0.46 -0.92,-2.06 0.9,-3.61 -1.22,-1.41 1.02,-0.51 -2.92,-2.22 -0.53,0.75 -1.17,-0.7 -0.17,-0.99 -1,0.64 -1.69,-0.73 -0.11,1.74 -0.85,-1.33 -0.97,0.26 0.07,1.89 -2.04,-2.47 -3.49,4.04 -1.53,-0.42 -0.77,-1.74 -6.57,-6.04 -2.94,-6.46 -2,-0.65 -2.13,1.96 -1.59,-1.51 -5.59,-2.38 -0.6,-1.13 1.51,0.27 1.8,-2.05 -0.31,-1.55 0.64,-1.04 -1.84,-1.5 -0.61,0.42 -0.61,-2.35 -1.26,-0.3 -0.24,-1.02 -1.74,-0.3 -2.3,-1.65 -1.42,0.85 -0.81,-0.29 0.18,0.76 -1.67,0.43 0.15,0.95 -1.68,0.92 -1.46,-1.06 -2.51,0.9 -4.65,-0.78 -1.94,0.38 -1.35,1.23 0.33,1.23 0,0 -3.6,-1.8 -1.57,0.14 -2.1,-1.8 -1.7,1.29 -2.83,-1.19 -1.1,0.9 -2.01,-1.44 -0.73,-1.89 -1.57,-0.77 0.82,-1.99 2.02,-1.2 -0.85,-2.38 1.61,-1.02 -1.26,-1.43 -1.62,0.32 -1.04,-1.48 -3.42,0.14 -0.21,-2.17 -2.97,-1.06 -0.62,-2.62 0.84,-1.17 1.06,-0.18 -0.54,-1.2 0.82,-0.78 -0.18,-0.8 -2.85,-0.8 -1.81,-2.84 0,0 -1.99,-2.3 -1.56,-0.67 0.72,-5.58 -0.92,-0.81 1.25,-1.52 3.24,1.5 1.32,-2.41 2.09,-0.91 0.03,-0.83 0.77,0.77 0.68,-1.5 2.06,-1.02 -1.86,-0.84 -1,-1.5 0.74,-0.52 -0.99,-1.22 0.96,-1.59 -0.82,-2.93 2.13,-3.06 -0.21,-3.27 0,0 10.43,0.64 1.25,1.02 3.19,0.12 9.93,-1.85 3.37,0.95 4.13,-0.21 12.7,-2.3 z"
      title="Puglia"
      id="IT-75" />

    </a>
    <a class="italy-map__link" href="{{ '/regioni/sardegna/' | relative_url }}" aria-label="Sardegna">

      <path
      d="m 89.77021,559.74051 0.55,0.96 2.26,-0.65 2.12,3.57 -1.14,5.62 -1.56,0.89 -2.8,-5.35 -0.56,-2.85 1.13,-2.19 z m -3.19,-4.53 -0.13,5.46 -1.62,0.38 -1.35,-0.95 0.05,-1.69 -1.54,-0.91 2.44,-2.24 2.15,-0.05 z m 73,-115.83 0.55,0.51 -2.49,1.59 -0.53,-0.41 2.76,-2.27 -0.29,0.58 z m -77.12,-3.89 -0.56,0.57 -0.06,-1 0.62,0.43 z m 4.81,-9.65 0.27,1.13 1.24,0.83 -0.73,0.74 -0.17,1.96 -2.73,-1.27 -2.18,3.03 0.66,-0.19 0.82,1.62 -0.47,1.37 -2.3,-0.29 0.99,-2.47 -0.63,-0.09 0.16,-1.12 1.48,-0.62 0.87,-1.6 0.96,-0.11 -0.54,-1.95 2.3,-0.97 z m 59.04,-8.33 0.86,1.53 -1.24,2.08 0.86,0.23 -2.3,0.35 1.09,-4.32 0.73,0.13 z m -6.73,-0.65 0.97,0.61 -1.06,0.94 0.09,-1.55 z m -5.67,-0.46 2.52,2.07 -0.75,1.88 1.06,1.11 2.45,-0.17 0.27,-1.28 1.25,-0.14 0.54,1.82 0.57,0.15 1.98,0.02 -0.98,1.27 1.26,0.22 0.9,1.38 -0.17,2.92 1.49,-2.26 -0.28,-1.15 2.49,0.14 0.31,-1.15 0.92,1.24 -0.56,0.33 0.98,0.06 -0.27,1.23 1.33,-0.06 0.26,1.12 -1,1.52 -0.55,-0.67 -0.39,0.37 0.29,1.44 -0.83,0.52 -0.77,2.98 0.77,-0.04 0.17,-1.35 1.76,-0.53 -0.53,2.25 1.32,0.06 -0.04,-0.82 0.46,0.3 0.49,-0.79 3.55,1.83 -0.7,0.74 -2.17,-1.11 -1.38,1.19 0.58,1.04 -1.29,1.73 0.33,0.93 -2.72,-0.4 -0.91,0.41 0.9,0.47 2.12,0.05 0.86,0.35 -0.38,0.41 0.97,1.14 1.48,-2.05 1.26,0.24 -1.48,1.88 2.24,1.11 -0.53,1.36 1.67,-0.37 2.1,1.45 -0.73,0.56 -1,-0.36 -0.41,0.97 0.57,0.77 -0.88,0.46 -0.14,1.26 2.36,2.34 -0.16,2.72 2,2.51 -0.61,2.56 0.64,2.55 1.84,1.72 0.28,1.81 1.66,1.04 -3.14,9.17 -3.94,3.36 -3.24,5.54 0,3.43 1.37,4.05 2.02,2.71 2.06,1.2 -0.02,1.66 -2.37,5.82 0.16,2.12 1.23,0.31 0.21,0.75 -1.83,1.85 0.74,3.17 -1.37,4.67 0.45,4.66 -1.64,4.03 0.53,5.51 -1.25,4.44 0.72,2.68 -2.47,7.5 0.31,2.11 1.48,1.21 -1.56,0.52 -1.07,1.64 -1,4.63 0.85,1.28 -1.08,2.98 -1.02,0 -0.92,1.13 0.13,1.3 -1,-0.84 0,-1.45 -0.95,-0.36 -2.42,0.82 -7.24,-5.97 -4.44,-0.93 -2.13,1.29 -0.48,1.71 -2.56,-2.06 -2.13,0.94 -2.54,3.16 -0.05,4.15 1.47,2.05 -1.25,4.73 -0.55,-0.55 -0.73,0.37 -7.09,7.14 -1.26,-0.05 -1,-1.31 -0.65,0.85 -1.28,-2.04 -2.78,-1.59 -0.17,1.04 -2.76,0.68 0.29,1.04 -1.09,0.55 0.5,1.33 -0.86,0.29 0.29,-2.01 -2.05,0.11 0.73,-3.3 -2.54,-2.31 -0.43,-4.26 -1.66,-0.96 -2.92,-0.06 0.46,-1.85 -0.71,-1.55 -0.64,-0.6 -1.1,0.59 -0.04,-2.91 -3.48,-3.73 -0.1,-0.98 2.99,-2.8 0.53,-1.38 -0.77,-2.71 -1.38,-0.49 -0.2,-1.71 -0.82,-0.68 1.98,-3.13 -0.05,-1.18 -1.49,-0.98 0.21,-1 3.41,-5.04 0.91,-3.68 -1.1,-2.15 0.44,-2.02 -0.62,-1.13 0.51,-1.6 -0.5,-3.33 0.68,-0.84 1.78,3.07 0.78,-0.06 0.34,-2.07 1.62,-2.76 0.4,-4.28 -1.52,-2.77 -2.41,-0.15 -1.91,1.96 -2.19,-2.07 -0.25,-4.49 1.03,-2.95 -1.82,-1.06 1.3,-1.08 0.5,0.7 2.14,-0.66 1.84,-1.96 0.08,-1.51 -1.77,-4.92 1.33,-7.34 -1.18,-2.26 -1.98,-1.15 -1.95,-0.11 -0.18,-1.44 1.14,-3.36 -1.43,-5.38 -1.81,-0.64 -1.94,-6.04 -2.71,0.54 -0.14,0.92 -2.04,0.05 -0.02,-1.76 0.75,-0.52 -1.09,-1.14 -1.81,2.85 -0.56,-0.18 -0.29,-2.99 2.05,-0.94 1.08,-3.18 -1.56,-0.67 -2.16,-2.46 1.75,-2.35 -0.28,-1.94 1.36,-1.18 1.84,-5.06 -2.4,-3.34 1.4,-2.4 1.72,1.24 -0.25,2.86 4.13,4.43 3.05,0.61 2.28,-0.38 1.94,1.42 5.44,-0.8 6.83,-5.52 5.01,-0.74 4.14,-4.71 -0.11,-1.31 3.08,-1.85 4.11,-5.58 1.65,-0.89 0.65,0.73 2.59,-0.5 0.61,-1.39 1.68,-0.07 0.82,-0.92 -0.76,-1.91 0.67,-2.18 -1.29,-0.22 0.15,-0.94 1.05,0.71 1.44,-0.77 0.06,0.92 1.83,-1.76 z m 9.68,-0.66 1.46,2.36 -0.43,1.15 -2.96,0.46 -0.45,-1.26 1.48,-1.12 -0.13,-1.1 0.69,0.74 0.34,-1.23 z"
      title="Sardegna"
      id="IT-88" />

    </a>
    <a class="italy-map__link" href="{{ '/regioni/sicilia/' | relative_url }}" aria-label="Sicilia">

      <path
      d="m 273.57021,707.08051 2.34,1.2 0.6,-0.37 2.01,1.7 0.12,2.36 -1.41,1.66 -1.88,-0.13 -3.32,-4.07 0.09,-1.56 1.45,-0.79 z m 25.2,-64.48 -0.94,-3.28 1.32,-0.71 -0.38,3.99 z m -7.1,-7.16 0.79,1.49 1.13,-0.41 1.09,0.78 -0.01,1.15 -0.73,0.18 -0.94,-1.02 -2.46,0.28 -0.83,-1.4 1.96,-1.05 z m -12.51,-2.44 1.33,2.86 -2.49,-0.75 -0.7,-2.16 1.86,0.05 z m 179.1,-20 2.42,1.62 2.74,0.66 -2.76,0.76 -1.51,1.25 -0.77,2.89 0.84,-0.17 -4.12,7.59 -9.76,12.73 -0.03,1.65 -1.66,1.13 0.2,0.92 -3.3,4.26 -0.38,1.12 0.73,1.72 -1.02,3.58 -1.22,1.56 0.07,3.52 -3.12,2.95 -1.54,2.87 0.59,10.6 3.34,2.07 1.51,0.38 0.68,-0.67 2.64,3.23 -0.55,0.76 -0.95,-0.66 -0.19,1.67 -0.46,-1.87 -1.15,0.4 -0.33,3.21 1,2.34 1.37,-0.45 0.57,0.83 -0.79,-0.33 -0.38,0.56 0.67,1.63 1.43,0.81 1.74,-0.08 0.1,3.06 -1.08,-0.41 -0.09,1.59 0.7,0.44 0.97,-0.57 1.44,2.49 -1.79,-0.8 -1.29,0.52 -0.73,2.16 -2.68,0.64 -2.89,3.19 -2.96,7.3 2.31,7.29 -0.46,1.15 -0.81,-0.5 -1.78,1.69 -3.2,-3.39 -3.09,0.56 -2.25,-1.92 -1.86,-0.48 -4.95,1.71 -1.93,-1.06 -2.73,-0.01 -2.69,-2.55 -2.52,-1 -4.87,-0.63 -1.77,-1.91 -0.82,-3.48 -3.21,-5.76 -6.02,-6.1 -4.99,-2.35 -4.91,-1.09 -5.26,0.12 -3.2,0.85 -1.51,-0.43 -2.7,-2.75 -3.69,-0.33 -4.62,-2.86 -0.95,-2.12 -4.47,-3.67 -1.52,0.39 -0.76,-0.84 -3.1,-0.09 -2.41,-2.52 -4.08,-2.02 -1.32,-1.57 -1.28,-0.09 -1.06,-2.39 -4.43,-4.3 -4.56,-0.77 -2.91,0.69 -2.96,-4.45 -2.3,-0.79 -7.06,-0.25 -5.37,1.33 -3.42,-5.2 -2.17,-1.38 -2.32,0.15 -2.22,-2.57 -0.19,-2.89 -2.44,-3.67 1.95,-1.12 1.14,-3.61 -1.42,-2.15 2.07,-2.9 -0.2,-2.01 1.24,-0.55 -1.48,-1.6 1.51,-0.38 2.66,-3.02 1.69,0.31 1.79,-0.71 1.21,-1.21 -0.12,-1.12 2.58,0.1 1.35,-1.95 -1.11,-2.19 0.81,-1.06 0.34,0.85 1.58,-0.18 0.05,1.81 1.08,1.06 -0.04,1.6 1.13,2.01 4.56,3.53 4.5,-1.24 4.58,-2.85 -1.28,-3.3 0.98,-0.23 0.66,-1.25 -0.4,-0.68 1.62,-1.37 4.26,1.51 2.11,-0.86 0.44,-1.36 1.75,0.26 2.18,-1.6 0.66,1.68 1.87,1.12 0.51,2.15 -0.74,1.14 1.05,1.47 3.29,0.92 2.25,-0.55 0.89,-1.12 1.49,0.42 0.03,3 1.55,1.78 7.44,4.02 2.78,0.43 4.93,-1.34 4.32,-2.55 3.86,-0.76 2.24,1.48 2.17,0.23 1.89,-0.96 7.21,1.44 4.38,-0.57 2.76,-1.55 2.72,0.41 8.22,-2.63 5.6,-5.98 2.16,0.91 5.12,-1.36 1.23,-1.26 2.9,2.55 3.78,0.01 0.84,1.58 1.96,0.4 3.89,-2.14 2.25,-2.55 1.14,-3.18 -0.87,-1.83 0.84,-0.06 0.7,1.53 -0.54,2.11 2.25,0.63 5.74,-1.57 6.3,-4.25 1.75,-0.14 z m -30.68,-7.75 1.89,1.45 0.3,1.71 -1.04,0.18 -1.7,-1.09 -0.57,-1.83 1.05,-1.35 0.51,0.5 -0.44,0.43 z m 0.11,-6.72 0.02,1.94 0.91,0.65 -1.28,0.42 -0.1,2.34 -2.89,-3.04 0.83,-2.18 2.51,-0.13 z m -30.78,-2.14 -0.06,1.42 -0.87,0.05 -0.12,-1.15 1.05,-0.32 z m 23.55,-1.87 2.57,0.12 -0.03,2.87 -0.79,0.18 -3.07,-1.76 0.55,-1.42 0.77,0.01 z m -13.99,-0.14 1.42,0.28 0.88,1.66 -2.03,-0.2 -0.73,-1.18 0.46,-0.56 z m 27.06,-3.89 -0.09,1.03 -0.93,0.31 0.14,-1.2 0.88,-0.14 z m -96.48,-4.47 0.43,0.29 -0.74,0.86 -1.71,0.15 0.35,-1.22 1.03,-0.54 0.64,0.46 z m 104.15,-6.35 0.89,0.66 -1.53,1.91 -1.31,-1.3 1.95,-1.27 z"
      title="Sicilia"
      id="IT-82"/>

    </a>
    <a class="italy-map__link" href="{{ '/regioni/toscana/' | relative_url }}" aria-label="Toscana">

      <path
      d="m 189.44021,341.50051 0.86,1.8 -0.76,0.73 -1.01,-0.17 -0.16,-2.15 1.07,-0.21 z m 29.33,-2.75 1.97,2.03 -0.22,3.02 -1.97,-2.44 -0.82,-0.13 1.04,-2.48 z m -41.31,-15.88 1.08,2.11 -0.65,1.48 -2.22,-0.98 1.43,-0.67 0.36,-1.94 z m 17.33,-17.27 1.33,1.4 -0.77,2.13 0.32,2.67 -2.52,1.36 2.45,1.7 -0.55,1.88 -2.47,-0.8 -0.92,-2.73 -0.77,-0.37 -1.22,0.24 0.07,1.67 -0.9,-1.6 -0.83,1.66 -2.23,-0.99 -0.22,1.65 -2.72,-0.74 -1.65,0.26 0.19,0.53 -1.81,-1.11 -1.03,-1.75 0.1,-1.58 1.84,-1.41 2.85,-0.07 2.54,1.55 0.17,-0.79 1.07,-0.28 -0.36,-0.57 0.65,-0.47 -0.61,-0.84 3.63,0.87 -0.76,0.97 1.9,0.34 2.67,-5.01 0.56,0.23 z m -30.08,-13.75 0.69,1.98 -1.83,2.42 -0.92,-1.33 0.51,-2.3 1.23,-1.3 0.32,0.53 z m 123.09,-52.03 0.08,0.16 0,0 0.3,1.1 -2.18,1.13 -1.37,-1.59 0.27,-1.12 2.77,0.02 0,0 0.13,0.3 z m -130.75,-39.65 3.6,-2.09 3.41,-5.36 5.35,-0.59 2.44,0.87 0.5,1.24 1.05,0.22 -0.54,2.63 1.13,1.26 4.28,2.94 2.44,-0.51 5.63,5.96 2.38,-1.19 2.19,1.23 1.6,0.03 2.95,3.04 1.67,-0.29 1.22,0.67 -0.05,1.38 1.74,1.6 0.24,1.55 3.42,3.05 1.67,-0.42 -0.07,-1.34 1,-1.23 5.57,0.13 4.97,4.03 2.28,0.51 0.68,0.91 -0.32,0.95 0.66,0.3 4.86,-5.46 0.4,0.91 -0.61,1.04 1.55,1.15 2.76,0.32 3.34,-1.45 3.09,0.89 2.54,-0.16 -0.25,-1.08 -2.93,-1.7 0.11,-0.94 3.99,-0.14 2.28,-2.07 0.2,-1.07 2.49,-0.26 2.46,-2.39 1.33,1.21 0.34,2.15 1.4,0.38 1.73,1.97 1.21,0.26 1.03,-1 2.6,0.53 0.2,1.04 -1.45,2.1 2.66,0.36 5.47,-1.1 -0.34,2.69 -2.03,2.19 -0.43,1.99 -1.68,0.64 0.2,1.09 -0.67,-0.09 -0.25,1.15 2.17,2.08 -0.33,1.63 1.82,1.22 -0.27,3.06 3.58,2 2,2.41 4.67,0.21 0.52,1.3 1.35,0.18 0,0 0.21,0.97 1.64,1.05 0,0 1.06,-0.42 1.46,0.9 0.92,-0.25 0,0 1.11,1.27 1.72,-0.9 0,0 1.42,0.16 1.44,-0.8 1.55,2.31 0.83,-1.97 2.04,0.38 1.64,-0.89 0,0 0.17,0.13 0,0 2.15,0.86 2.29,3.08 -2.1,0.02 0.3,2.18 -0.92,-0.06 -0.61,-3.72 -0.44,3.12 -1.23,0.66 -1.46,-0.28 0.2,0.81 -0.94,1.05 -2.31,0.83 1.45,2.23 0,0 -2.48,3.13 -0.77,2.59 -2.19,-0.18 -0.55,0.56 -0.17,1.76 2.61,1.48 -0.1,0.56 -2.13,0.9 -1.01,1.7 -1.09,-0.34 -1.71,1.74 0.33,1 2.14,-0.22 0.11,2.66 1.43,-0.54 0.65,0.6 1.01,2.29 -0.59,1.71 0.4,0.9 2.23,0.84 0.9,-2.23 1.54,1.26 -6.67,4.18 -2.2,-1.23 -0.82,0.37 0.5,1.33 -0.99,2.73 -5.18,3.05 -0.49,1.32 0.88,2.44 -0.33,1.22 0.79,1.57 0.84,-1.05 1.27,1.36 -2.42,9.85 1.09,0.75 0.15,1.81 -1.28,0.08 -1.95,2.34 0,0 -2.48,-0.14 -1.62,1.07 -0.51,2.01 -0.7,-1.32 -1.2,-0.47 -1.16,2.44 3.78,2.96 -1.04,2.36 -1.23,-0.01 0.41,2.62 1.05,0.48 0.08,1.08 -1.4,0.92 -1.37,-0.19 -0.91,2.14 -1.29,-0.25 -1.5,1.11 -0.2,1.08 -1.74,0.88 -0.81,-0.23 -0.67,0.89 -1.14,-1.05 -0.62,0.33 0.45,1.76 -1.37,1.94 2.79,1.91 0.09,3.43 -6.8,0.08 -1.85,4.15 0,0 -8.37,-1.95 -1.17,-0.95 -2.73,0.72 0.13,1.48 -0.99,0.48 -0.23,1.22 -1.82,0.15 -1.36,-1.7 -1.62,-0.51 -0.44,-2.58 0.98,-1.23 0.85,0.87 2.24,-0.19 1.01,-2.06 0.31,-3.12 -1.73,-3.57 -1.76,0.36 -0.98,-2.88 -1.1,-1.07 0.21,-0.98 -4.14,-1.77 -0.93,-3.72 -2.21,-2.29 -4.43,-1.78 -3.39,-0.4 -3.08,-2.02 1.84,-1.13 0.14,-3.65 0.89,-1.29 -0.66,-1.47 -1.79,-1.34 -3.2,-1.49 -2.86,-0.31 -3.73,0.58 -0.39,1.77 -2.31,-0.78 -0.59,-3.94 1.69,-0.8 1.12,-6.21 -0.66,-11.12 -1.17,-2.9 -2.16,-2.26 -1.83,-5.45 -1.08,-0.1 -1.15,-3.16 -2.62,-1.98 -1.62,-4.33 0.32,-2.36 -1.86,-7.72 0.6,-0.88 -0.25,-4.01 -1.84,-8.73 -5.04,-7.69 -4.12,-3.65 -2.16,-1.04 0,0 2.23,-2.54 0.27,-1.38 -2.37,-1.47 -1.78,1.5 0.49,-1.23 -0.94,-1.39 -0.19,-2.36 -3.93,0.14 1.24,-1.98 0.75,-0.06 -1.47,-1.02 -2.08,1.75 0.43,-2.73 -0.81,-0.7 -0.09,-2.57 -2.59,-1.06 -4.03,-3.13 -1.01,-2.58 -1.46,0.03 z"
      title="Toscana"
      id="IT-52" />

    </a>
    <a class="italy-map__link" href="{{ '/regioni/provincia-autonoma-di-bolzano/' | relative_url }}" aria-label="Provincia autonoma di Bolzano">
      <path d="M 268.75724,43.38999 L 271.29021,42.1105 L 272.86021,42.4305 L 274.04021,41.2505 L 275.20021,41.1905 L 275.78021,41.9605 L 278.24021,38.0405 L 278.07021,36.5505 L 279.58021,33.8705 L 279.28021,31.5405 L 283.21021,34.6105 L 284.04021,34.3205 L 285.59021,35.3005 L 285.70021,37.5605 L 289.04021,34.9105 L 290.25021,35.6705 L 293.24021,34.7305 L 293.98021,35.6205 L 295.24021,35.5605 L 295.75021,35.1005 L 295.37021,33.7705 L 296.25021,33.9705 L 297.92021,32.1005 L 300.38021,31.1805 L 295.34021,28.2705 L 293.97021,24.0105 L 290.35021,23.3605 L 290.41021,21.0405 L 291.54021,19.1905 L 289.96021,15.9705 L 288.20021,15.5605 L 286.83021,16.6305 L 285.39021,14.3105 L 283.12021,13.8805 L 284.42021,11.9605 L 282.82021,10.4405 L 281.97021,6.64051 L 283.29021,5.37051 L 286.26021,5.06051 L 286.80021,2.89051 L 287.96021,2.07051 L 286.23021,0.71051 L 285.14021,0.27051 L 281.76021,1.70051 L 280.69021,1.31051 L 279.55021,2.75051 L 277.72021,2.56051 L 276.72021,3.66051 L 274.49021,3.47051 L 273.06021,4.62051 L 271.45021,4.70051 L 267.43021,7.80051 L 264.64021,7.93051 L 262.86021,9.58051 L 261.83021,9.29051 L 260.96021,7.87051 L 258.56021,7.81051 L 256.28021,6.29051 L 252.08021,8.53051 L 249.15021,6.41051 L 247.15021,9.13051 L 245.28021,9.92051 L 242.89021,7.97051 L 241.82021,8.44051 L 240.97021,7.86051 L 235.20021,10.0905 L 234.28021,9.48051 L 233.03021,9.85051 L 232.89021,11.8005 L 231.71021,12.6805 L 230.40021,12.5005 L 229.50021,13.8005 L 229.64021,15.6005 L 228.21021,18.2205 L 228.83021,20.6605 L 226.54021,21.8605 L 225.60021,24.7205 L 220.35021,24.1605 L 218.69021,25.0305 L 216.21021,23.5805 L 215.03021,24.0705 L 213.63021,22.5505 L 212.00021,23.3705 L 210.66021,23.1405 L 212.41021,20.5005 L 211.96021,19.6905 L 208.79021,18.4005 L 208.80021,17.3905 L 207.44021,16.6205 L 201.35021,19.4605 L 201.72021,18.5805 L 198.92021,18.7805 L 197.80021,17.8805 L 196.34021,22.0205 L 194.90021,22.8205 L 196.12021,25.3905 L 193.93021,27.1305 L 194.68021,28.8805 L 193.14021,30.7905 L 193.98021,34.4405 L 196.27021,34.1305 L 198.55021,36.2105 L 197.66021,41.2805 L 196.66021,42.1705 L 197.80021,44.8605 L 201.57021,45.1605 L 204.21021,46.9305 L 204.93941,47.89333 L 206.7606,48.50146 L 206.87222,48.54682 L 206.99539,48.57986 L 207.12797,48.60122 L 207.26783,48.61161 L 207.41283,48.61168 L 207.56084,48.60213 L 207.7097,48.58361 L 207.85729,48.55681 L 208.00147,48.52241 L 208.1401,48.48108 L 208.27103,48.4335 L 208.39215,48.38034 L 208.51047,48.32757 L 208.62919,48.28305 L 208.74913,48.24608 L 208.87115,48.21597 L 208.99609,48.19202 L 209.12481,48.17353 L 209.25814,48.1598 L 209.39693,48.15014 L 209.54204,48.14384 L 209.69431,48.1402 L 209.85457,48.13853 L 210.0237,48.13813 L 210.12346,48.12485 L 210.22332,48.08771 L 210.32236,48.03074 L 210.41969,47.95796 L 210.51438,47.8734 L 210.60555,47.7811 L 210.69229,47.68509 L 210.77368,47.58939 L 210.84882,47.49804 L 210.91681,47.41507 L 210.97675,47.3445 L 211.02772,47.29036 L 211.12129,47.20483 L 211.21634,47.1263 L 211.31244,47.05346 L 211.40919,46.98505 L 211.50618,46.91977 L 211.603,46.85634 L 211.69923,46.79348 L 211.79447,46.72989 L 211.8883,46.66429 L 211.98032,46.5954 L 212.07011,46.52193 L 212.15726,46.4426 L 212.25139,46.35414 L 212.34233,46.27298 L 212.43045,46.19789 L 212.51616,46.12766 L 212.59983,46.06107 L 212.68186,45.99692 L 212.76264,45.93397 L 212.84255,45.87101 L 212.92198,45.80684 L 213.00132,45.74023 L 213.08096,45.66996 L 213.16129,45.59483 L 213.27756,45.48547 L 213.38375,45.39296 L 213.48166,45.31765 L 213.57311,45.2599 L 213.65993,45.22008 L 213.74394,45.19856 L 213.82696,45.19568 L 213.9108,45.21182 L 213.99728,45.24733 L 214.08824,45.30258 L 214.18547,45.37792 L 214.29082,45.47373 L 214.34479,45.54717 L 214.38714,45.64771 L 214.41954,45.77037 L 214.44368,45.91018 L 214.46126,46.06214 L 214.47394,46.22128 L 214.48343,46.38263 L 214.4914,46.5412 L 214.49954,46.69202 L 214.50953,46.8301 L 214.52307,46.95047 L 214.54183,47.04814 L 214.5798,47.15836 L 214.63438,47.26767 L 214.7025,47.37585 L 214.78111,47.48265 L 214.86715,47.58785 L 214.95755,47.69119 L 215.04926,47.79246 L 215.13922,47.8914 L 215.22437,47.98778 L 215.30165,48.08138 L 215.36799,48.17194 L 215.42035,48.25924 L 215.48647,48.38349 L 215.5501,48.49471 L 215.61296,48.59389 L 215.67673,48.682 L 215.74313,48.76005 L 215.81386,48.829 L 215.89061,48.88985 L 215.9751,48.94358 L 216.06901,48.99118 L 216.17406,49.03362 L 216.29195,49.0719 L 216.42438,49.107 L 216.60726,49.15338 L 216.77165,49.19875 L 216.92167,49.24255 L 217.06146,49.28419 L 217.19514,49.32309 L 217.32685,49.35869 L 217.46071,49.39039 L 217.60086,49.41763 L 217.75143,49.43982 L 217.91654,49.45638 L 218.10033,49.46675 L 218.30694,49.47033 L 218.45494,49.46411 L 218.59201,49.44619 L 218.71906,49.41766 L 218.837,49.37962 L 218.94674,49.33317 L 219.0492,49.27941 L 219.14528,49.21944 L 219.2359,49.15435 L 219.32197,49.08524 L 219.40439,49.01321 L 219.48409,48.93936 L 219.56197,48.86478 L 219.64094,48.78405 L 219.71351,48.70055 L 219.78015,48.61402 L 219.84132,48.52417 L 219.89749,48.43075 L 219.94911,48.33347 L 219.99666,48.23207 L 220.04059,48.12627 L 220.08138,48.01581 L 220.11948,47.9004 L 220.15536,47.77979 L 220.18949,47.65369 L 220.22512,47.55359 L 220.27911,47.45091 L 220.34857,47.34691 L 220.43062,47.24289 L 220.52236,47.14012 L 220.62092,47.03989 L 220.72339,46.94349 L 220.8269,46.85219 L 220.92856,46.76728 L 221.02547,46.69004 L 221.11475,46.62175 L 221.19352,46.56371 L 221.29355,46.48378 L 221.38381,46.39745 L 221.46577,46.30605 L 221.5409,46.2109 L 221.61066,46.11332 L 221.67653,46.01465 L 221.73996,45.9162 L 221.80243,45.8193 L 221.86541,45.72528 L 221.93036,45.63546 L 221.99875,45.55116 L 222.07204,45.47373 L 222.19883,45.37033 L 222.32249,45.30494 L 222.44332,45.27289 L 222.56162,45.26952 L 222.67769,45.29017 L 222.79182,45.33019 L 222.90431,45.3849 L 223.01546,45.44967 L 223.12557,45.51981 L 223.23492,45.59068 L 223.34383,45.65761 L 223.45258,45.71594 L 223.55604,45.76876 L 223.65797,45.82635 L 223.7583,45.88826 L 223.85701,45.95402 L 223.95404,46.02318 L 224.04934,46.09527 L 224.14286,46.16983 L 224.23456,46.24642 L 224.32438,46.32455 L 224.41228,46.40379 L 224.49821,46.48366 L 224.58212,46.56371 L 224.65994,46.62811 L 224.75173,46.68633 L 224.85533,46.73892 L 224.96857,46.78641 L 225.0893,46.82936 L 225.21536,46.86829 L 225.34458,46.90377 L 225.47482,46.93632 L 225.6039,46.96649 L 225.72967,46.99482 L 225.84998,47.02186 L 225.96266,47.04814 L 226.09386,47.08565 L 226.22134,47.13284 L 226.34535,47.18806 L 226.46612,47.24966 L 226.58387,47.31601 L 226.69884,47.38545 L 226.81126,47.45633 L 226.92136,47.52702 L 227.02937,47.59585 L 227.13553,47.66119 L 227.24006,47.72139 L 227.3432,47.7748 L 227.48858,47.8407 L 227.62263,47.89252 L 227.7471,47.93089 L 227.86374,47.95644 L 227.97428,47.96979 L 228.08047,47.97159 L 228.18405,47.96244 L 228.28675,47.943 L 228.39033,47.91388 L 228.49653,47.87573 L 228.60708,47.82915 L 228.72374,47.7748 L 228.84849,47.70614 L 228.95049,47.6323 L 229.03261,47.55307 L 229.09773,47.46826 L 229.14872,47.37764 L 229.18846,47.28102 L 229.2198,47.1782 L 229.24563,47.06895 L 229.26882,46.95309 L 229.29224,46.8304 L 229.31876,46.70067 L 229.35125,46.56371 L 229.37258,46.4255 L 229.36457,46.299 L 229.33143,46.18328 L 229.27738,46.07741 L 229.20664,45.98046 L 229.12343,45.89151 L 229.03195,45.80962 L 228.93643,45.73387 L 228.84109,45.66333 L 228.75013,45.59708 L 228.66777,45.53419 L 228.59824,45.47373 L 228.51298,45.40169 L 228.41743,45.33891 L 228.31248,45.28433 L 228.19901,45.23691 L 228.07792,45.1956 L 227.95012,45.15934 L 227.81648,45.12709 L 227.67791,45.09781 L 227.53531,45.07043 L 227.38955,45.04392 L 227.24155,45.01722 L 227.09219,44.98929 L 227.02603,44.96605 L 226.94308,44.92085 L 226.84686,44.85769 L 226.74086,44.78057 L 226.62861,44.69349 L 226.51361,44.60046 L 226.39938,44.50549 L 226.28943,44.41257 L 226.18727,44.32571 L 226.09641,44.24891 L 226.02037,44.18618 L 225.96266,44.14152 L 225.83936,44.03979 L 225.74835,43.93821 L 225.68667,43.83735 L 225.65135,43.73774 L 225.63944,43.63993 L 225.64798,43.54447 L 225.67399,43.4519 L 225.71453,43.36276 L 225.76663,43.27762 L 225.82732,43.197 L 225.89365,43.12146 L 225.96266,43.05154 L 226.0617,42.9813 L 226.18288,42.93544 L 226.32214,42.91048 L 226.47541,42.90293 L 226.63866,42.90932 L 226.80781,42.92615 L 226.97882,42.94995 L 227.14762,42.97724 L 227.31017,43.00452 L 227.4624,43.02832 L 227.60027,43.04515 L 227.71971,43.05154 L 227.91837,43.04934 L 228.09036,43.04232 L 228.23913,43.02985 L 228.36811,43.01129 L 228.48073,42.98599 L 228.58045,42.95334 L 228.6707,42.91268 L 228.75491,42.86338 L 228.83654,42.80481 L 228.91901,42.73634 L 229.00577,42.65731 L 229.10025,42.5671 L 229.26288,42.43358 L 229.41078,42.35687 L 229.54406,42.33052 L 229.66283,42.34806 L 229.76721,42.40304 L 229.85731,42.489 L 229.93324,42.59948 L 229.99511,42.72803 L 230.04304,42.86819 L 230.07714,43.0135 L 230.09751,43.15751 L 230.10428,43.29376 L 230.11029,43.45051 L 230.1274,43.59341 L 230.15424,43.7241 L 230.18942,43.84426 L 230.23158,43.95555 L 230.27933,44.05963 L 230.33131,44.15817 L 230.38612,44.25283 L 230.44241,44.34528 L 230.49878,44.43717 L 230.55387,44.53018 L 230.60629,44.62596 L 230.66909,44.74688 L 230.72723,44.85747 L 230.78211,44.95918 L 230.83513,45.05348 L 230.88767,45.14183 L 230.94114,45.22567 L 230.99692,45.30648 L 231.05641,45.3857 L 231.121,45.4648 L 231.19209,45.54523 L 231.27106,45.62846 L 231.35932,45.71594 L 231.43741,45.77427 L 231.53732,45.82242 L 231.65565,45.86136 L 231.78901,45.89207 L 231.93403,45.91551 L 232.08731,45.93267 L 232.24547,45.94452 L 232.40512,45.95203 L 232.56287,45.95617 L 232.71533,45.95793 L 232.85913,45.95827 L 232.99086,45.95816 L 233.14355,45.95866 L 233.30074,45.96027 L 233.46072,45.96319 L 233.62183,45.9676 L 233.78235,45.97369 L 233.94061,45.98166 L 234.09491,45.99168 L 234.24356,46.00395 L 234.38488,46.01865 L 234.51717,46.03598 L 234.63875,46.05613 L 234.74791,46.07927 L 234.81634,46.10851 L 234.89159,46.16214 L 234.97189,46.23565 L 235.05544,46.32454 L 235.14045,46.4243 L 235.22514,46.53041 L 235.30773,46.63838 L 235.38641,46.74368 L 235.45941,46.84182 L 235.52494,46.92828 L 235.58122,46.99856 L 235.62644,47.04814 L 235.71316,47.14375 L 235.78362,47.24467 L 235.84081,47.34962 L 235.88773,47.45728 L 235.92739,47.56634 L 235.96279,47.67549 L 235.99694,47.78343 L 236.03283,47.88886 L 236.07348,47.99046 L 236.12188,48.08693 L 236.18104,48.17695 L 236.25396,48.25924 L 236.33296,48.35128 L 236.39497,48.45616 L 236.44192,48.57217 L 236.47573,48.69758 L 236.49834,48.83068 L 236.51167,48.96975 L 236.51766,49.11309 L 236.51824,49.25897 L 236.51532,49.40569 L 236.51086,49.55152 L 236.50676,49.69474 L 236.50496,49.83366 L 236.51026,49.95896 L 236.52516,50.09502 L 236.54821,50.23947 L 236.57795,50.38997 L 236.61292,50.54417 L 236.65166,50.6997 L 236.6927,50.85421 L 236.7346,51.00536 L 236.77589,51.15079 L 236.8151,51.28813 L 236.85078,51.41505 L 236.88148,51.52919 L 236.90681,51.66292 L 236.91714,51.80438 L 236.91446,51.95164 L 236.90073,52.10281 L 236.87794,52.25599 L 236.84805,52.40927 L 236.81305,52.56076 L 236.77491,52.70856 L 236.73561,52.85075 L 236.69711,52.98544 L 236.66141,53.11073 L 236.63047,53.22471 L 236.59972,53.35598 L 236.57443,53.4898 L 236.55406,53.62597 L 236.5381,53.76425 L 236.526,53.90444 L 236.51723,54.04629 L 236.51127,54.18961 L 236.50759,54.33415 L 236.50564,54.47971 L 236.50491,54.62606 L 236.50486,54.77298 L 236.50496,54.92024 L 236.50507,55.07492 L 236.50503,55.21659 L 236.50431,55.34731 L 236.50238,55.46918 L 236.4987,55.58424 L 236.49275,55.69459 L 236.484,55.80228 L 236.4719,55.9094 L 236.45593,56.01802 L 236.43556,56.1302 L 236.41024,56.24802 L 236.37946,56.37355 L 236.34633,56.46592 L 236.29578,56.56191 L 236.23083,56.66093 L 236.15455,56.76233 L 236.06997,56.86549 L 235.98012,56.9698 L 235.88806,57.07462 L 235.79682,57.17933 L 235.70945,57.28332 L 235.62898,57.38595 L 235.55846,57.4866 L 235.50094,57.58464 L 235.4502,57.66219 L 235.38212,57.73648 L 235.29954,57.80812 L 235.20529,57.8777 L 235.1022,57.94583 L 234.99312,58.0131 L 234.88087,58.08012 L 234.7683,58.14748 L 234.65823,58.2158 L 234.5535,58.28565 L 234.45695,58.35766 L 234.3714,58.43241 L 234.29954,58.51365 L 234.23504,58.60939 L 234.17733,58.7169 L 234.12585,58.83346 L 234.08001,58.95634 L 234.03926,59.08282 L 234.00301,59.21018 L 233.9707,59.33567 L 233.94175,59.45659 L 233.9156,59.5702 L 233.89167,59.67378 L 233.86939,59.76461 L 233.84943,59.88916 L 233.85151,60.01473 L 233.87237,60.14026 L 233.90879,60.26472 L 233.95752,60.38707 L 234.01532,60.50626 L 234.07897,60.62125 L 234.14521,60.73101 L 234.21081,60.83448 L 234.27254,60.93063 L 234.32715,61.01842 L 234.3714,61.09681 L 234.42583,61.20186 L 234.47872,61.30394 L 234.53043,61.40373 L 234.58128,61.50188 L 234.63164,61.59906 L 234.68183,61.69594 L 234.73221,61.79317 L 234.78312,61.89142 L 234.8349,61.99135 L 234.8879,62.09364 L 234.94246,62.19893 L 234.99892,62.3079 L 235.06747,62.4432 L 235.12754,62.56645 L 235.18136,62.67938 L 235.23115,62.78374 L 235.27915,62.88127 L 235.32759,62.97371 L 235.37868,63.0628 L 235.43465,63.15029 L 235.49774,63.23791 L 235.57016,63.32741 L 235.65416,63.42052 L 235.75194,63.519 L 235.84544,63.60388 L 235.94054,63.67943 L 236.03795,63.74601 L 236.13834,63.80401 L 236.24242,63.85379 L 236.35088,63.89572 L 236.46441,63.93019 L 236.58371,63.95755 L 236.70948,63.97818 L 236.8424,63.99246 L 236.98317,64.00075 L 237.13248,64.00343 L 237.32132,63.99878 L 237.48668,63.98559 L 237.63216,63.96503 L 237.76134,63.93826 L 237.8778,63.90644 L 237.98515,63.87074 L 238.08695,63.83232 L 238.18681,63.79235 L 238.28831,63.75197 L 238.39504,63.71237 L 238.51058,63.67469 L 238.63853,63.6401 L 238.84447,63.59926 L 239.0224,63.57925 L 239.17579,63.57385 L 239.30806,63.57684 L 239.42265,63.58199 L 239.52302,63.58307 L 239.61259,63.57387 L 239.69482,63.54815 L 239.77314,63.4997 L 239.85099,63.42228 L 239.93182,63.30968 L 240.01907,63.15567 L 240.0668,63.08155 L 240.13431,63.0015 L 240.21817,62.91639 L 240.31501,62.8271 L 240.42141,62.73447 L 240.53398,62.63939 L 240.64932,62.54271 L 240.76403,62.4453 L 240.87471,62.34803 L 240.97797,62.25176 L 241.07039,62.15735 L 241.1486,62.06569 L 241.22465,61.96791 L 241.29801,61.87341 L 241.36877,61.78159 L 241.437,61.69183 L 241.50278,61.60354 L 241.56619,61.51612 L 241.62733,61.42894 L 241.68626,61.34142 L 241.74308,61.25293 L 241.79785,61.16289 L 241.85068,61.07068 L 241.90162,60.9757 L 241.96603,60.8579 L 242.03347,60.74643 L 242.10351,60.64085 L 242.17572,60.54075 L 242.24968,60.4457 L 242.32495,60.35526 L 242.4011,60.26902 L 242.47771,60.18654 L 242.55435,60.1074 L 242.63059,60.03116 L 242.706,59.95742 L 242.78015,59.88572 L 242.92508,59.75064 L 243.0477,59.64827 L 243.15306,59.57617 L 243.24624,59.53189 L 243.33229,59.51299 L 243.41629,59.51702 L 243.50329,59.54154 L 243.59836,59.58408 L 243.70657,59.64223 L 243.83299,59.71351 L 243.98267,59.79549 L 244.16069,59.88572 L 244.18211,59.91293 L 244.21806,59.97704 L 244.26585,60.07101 L 244.32282,60.18778 L 244.38629,60.32031 L 244.45359,60.46153 L 244.52205,60.60441 L 244.589,60.74189 L 244.65176,60.86692 L 244.70766,60.97245 L 244.75403,61.05143 L 244.7882,61.09681 L 244.8947,61.18892 L 245.0016,61.26122 L 245.10867,61.31519 L 245.2157,61.35228 L 245.32245,61.37397 L 245.4287,61.38173 L 245.53424,61.37703 L 245.63883,61.36132 L 245.74225,61.33609 L 245.84427,61.30281 L 245.94468,61.26293 L 246.04324,61.21792 L 246.10711,61.15448 L 246.13872,61.04895 L 246.14312,60.91025 L 246.12537,60.74732 L 246.09052,60.56909 L 246.04362,60.3845 L 245.98972,60.20248 L 245.93389,60.03195 L 245.88117,59.88186 L 245.83662,59.76113 L 245.80529,59.6787 L 245.79223,59.6435 L 245.75934,59.54668 L 245.71231,59.44925 L 245.65376,59.35173 L 245.58631,59.25462 L 245.51256,59.15844 L 245.43512,59.06368 L 245.3566,58.97085 L 245.27962,58.88047 L 245.20677,58.79304 L 245.14069,58.70906 L 245.08396,58.62906 L 245.03921,58.55352 L 245.00304,58.43128 L 245.0185,58.31436 L 245.07779,58.20343 L 245.17309,58.09916 L 245.29659,58.00222 L 245.44048,57.91326 L 245.59693,57.83296 L 245.75814,57.76199 L 245.9163,57.701 L 246.06357,57.65067 L 246.19216,57.61166 L 246.29425,57.58464 L 246.41499,57.55118 L 246.5326,57.51063 L 246.64714,57.46417 L 246.75866,57.41303 L 246.86723,57.35839 L 246.9729,57.30146 L 247.07573,57.24344 L 247.17578,57.18554 L 247.2731,57.12895 L 247.36775,57.07488 L 247.4598,57.02453 L 247.54928,56.9791 L 247.65638,56.92743 L 247.76485,56.87509 L 247.87416,56.82235 L 247.98375,56.76947 L 248.09306,56.71673 L 248.20155,56.66438 L 248.30867,56.6127 L 248.41386,56.56195 L 248.51657,56.51239 L 248.61625,56.4643 L 248.71235,56.41793 L 248.80432,56.37355 L 248.86174,56.33033 L 248.92208,56.258 L 248.98419,56.16214 L 249.04691,56.04835 L 249.10909,55.92221 L 249.16956,55.7893 L 249.22717,55.65521 L 249.28077,55.52551 L 249.32919,55.40581 L 249.37128,55.30168 L 249.40588,55.2187 L 249.43184,55.16246 L 249.46481,55.12145 L 249.52591,55.06656 L 249.61003,55.00033 L 249.71206,54.92532 L 249.82692,54.84407 L 249.94949,54.75913 L 250.07468,54.67305 L 250.19739,54.58838 L 250.31251,54.50766 L 250.41495,54.43344 L 250.4996,54.36827 L 250.56137,54.3147 L 250.65177,54.2331 L 250.7457,54.15882 L 250.84289,54.09136 L 250.94305,54.03022 L 251.04589,53.97491 L 251.15111,53.92494 L 251.25844,53.87979 L 251.36757,53.83898 L 251.47822,53.80201 L 251.59011,53.76838 L 251.70293,53.73759 L 251.81641,53.70915 L 251.92017,53.69396 L 252.04851,53.69071 L 252.19696,53.69774 L 252.36102,53.7134 L 252.53624,53.73604 L 252.71813,53.76402 L 252.90222,53.79567 L 253.08403,53.82936 L 253.25909,53.86342 L 253.42291,53.89621 L 253.57103,53.92608 L 253.69897,53.95137 L 253.78143,53.95695 L 253.88628,53.94829 L 254.00914,53.9277 L 254.14565,53.89751 L 254.29144,53.86002 L 254.44215,53.81756 L 254.5934,53.77244 L 254.74083,53.72697 L 254.88007,53.68348 L 255.00676,53.64429 L 255.11653,53.6117 L 255.20501,53.58804 L 255.3268,53.54846 L 255.4368,53.49322 L 255.53645,53.42476 L 255.62721,53.34555 L 255.71056,53.25803 L 255.78796,53.16466 L 255.86085,53.06791 L 255.93071,52.97021 L 255.999,52.87404 L 256.06717,52.78183 L 256.1367,52.69606 L 256.20904,52.61917 L 256.3007,52.52833 L 256.38481,52.44058 L 256.46262,52.35554 L 256.5354,52.27283 L 256.6044,52.19209 L 256.67089,52.11293 L 256.73612,52.03498 L 256.80136,51.95787 L 256.86786,51.88122 L 256.93689,51.80466 L 257.0097,51.72781 L 257.08756,51.65029 L 257.16785,51.56416 L 257.23965,51.47051 L 257.30399,51.37079 L 257.36189,51.26645 L 257.41435,51.15894 L 257.4624,51.04971 L 257.50706,50.9402 L 257.54935,50.83186 L 257.59027,50.72614 L 257.63086,50.6245 L 257.67212,50.52837 L 257.71508,50.4392 L 257.774,50.3255 L 257.83069,50.21609 L 257.88546,50.11038 L 257.93862,50.00779 L 257.99047,49.90772 L 258.04132,49.80957 L 258.09148,49.71277 L 258.14125,49.61671 L 258.19094,49.5208 L 258.24086,49.42446 L 258.29131,49.3271 L 258.3426,49.22811 L 258.39813,49.10443 L 258.43974,48.97787 L 258.46971,48.84888 L 258.49033,48.71791 L 258.5039,48.58543 L 258.5127,48.45188 L 258.51903,48.31772 L 258.52516,48.1834 L 258.5334,48.04939 L 258.54602,47.91613 L 258.56533,47.78408 L 258.59361,47.65369 L 258.62235,47.51746 L 258.64112,47.37378 L 258.65133,47.22405 L 258.65442,47.06968 L 258.6518,46.91208 L 258.64492,46.75267 L 258.63518,46.59286 L 258.62401,46.43405 L 258.61285,46.27765 L 258.60311,46.12508 L 258.59622,45.97774 L 258.59361,45.83705 L 258.59855,45.69907 L 258.6122,45.56526 L 258.63283,45.43474 L 258.65868,45.30664 L 258.68803,45.18007 L 258.71911,45.05414 L 258.7502,44.92797 L 258.77954,44.80068 L 258.80539,44.67138 L 258.82602,44.5392 L 258.83967,44.40324 L 258.84461,44.26263 L 258.8582,44.15461 L 258.89657,44.05181 L 258.95609,43.95469 L 259.03317,43.86375 L 259.12419,43.77944 L 259.22555,43.70224 L 259.33364,43.63263 L 259.44484,43.57108 L 259.55555,43.51805 L 259.66216,43.47402 L 259.76106,43.43947 L 259.84864,43.41487 L 259.93867,43.38075 L 260.02355,43.32575 L 260.10448,43.25359 L 260.18266,43.168 L 260.25929,43.07268 L 260.33556,42.97137 L 260.41267,42.86778 L 260.49181,42.76564 L 260.57419,42.66867 L 260.66099,42.58059 L 260.75342,42.50513 L 260.85267,42.44599 L 260.98329,42.39182 L 261.12467,42.34859 L 261.27389,42.31544 L 261.428,42.29148 L 261.58407,42.27583 L 261.73914,42.26761 L 261.89029,42.26593 L 262.03457,42.26992 L 262.16904,42.27869 L 262.29077,42.29136 L 262.39681,42.30706 L 262.48422,42.32489 L 262.51619,42.34153 L 262.56459,42.37791 L 262.62789,42.4305 L 262.70455,42.49577 L 262.79302,42.57021 L 262.89176,42.65027 L 262.99924,42.73245 L 263.11391,42.8132 L 263.23424,42.88902 L 263.35869,42.95636 L 263.4857,43.01171 L 263.61376,43.05154 L 263.71264,43.06961 L 263.82891,43.0814 L 263.95937,43.08783 L 264.10082,43.08977 L 264.25008,43.08812 L 264.40395,43.08379 L 264.55924,43.07767 L 264.71276,43.07065 L 264.86132,43.06363 L 265.00172,43.05751 L 265.13078,43.05318 L 265.2453,43.05154 L 265.39022,43.04522 L 265.52549,43.02702 L 265.65181,42.9981 L 265.76987,42.95961 L 265.88037,42.91272 L 265.984,42.85857 L 266.08145,42.79831 L 266.17341,42.73312 L 266.26059,42.66413 L 266.34368,42.59252 L 266.42336,42.51942 L 266.50034,42.44599 L 266.63242,42.34505 L 266.77419,42.28241 L 266.92239,42.2532 L 267.07374,42.25252 L 267.22499,42.27549 L 267.37287,42.31724 L 267.5141,42.37286 L 267.64543,42.43748 L 267.76359,42.50621 L 267.86531,42.57417 L 267.94733,42.63647 L 268.00638,42.68822 L 268.08844,42.76927 L 268.16625,42.84898 L 268.24119,42.92719 L 268.3146,43.00372 L 268.38785,43.07842 L 268.46231,43.15111 L 268.53932,43.22164 L 268.62025,43.28983 L 268.70647,43.35553 Z" title="Bolzano" id="IT-32-bolzano" />
    </a>
    <a class="italy-map__link" href="{{ '/regioni/provincia-autonoma-di-trento/' | relative_url }}" aria-label="Provincia autonoma di Trento">
      <path d="M 204.93941,47.89333 L 205.24021,48.2905 L 205.01021,50.4905 L 205.85021,51.8705 L 204.36021,53.4305 L 202.39021,53.5505 L 199.80021,56.0905 L 202.44021,57.3605 L 203.04021,59.3805 L 202.16021,60.6505 L 202.97021,61.1205 L 203.48021,63.2505 L 201.21021,67.4105 L 202.27021,69.0005 L 201.34021,73.4205 L 198.01021,77.4905 L 198.37021,79.39051 L 197.17021,80.34051 L 196.60021,82.17051 L 196.65021,83.17051 L 198.39021,83.4905 L 198.23021,85.5205 L 199.53021,87.5105 L 198.62021,89.6105 L 199.14021,93.9205 L 201.39021,94.8805 L 200.70021,96.2705 L 201.11021,97.1405 L 202.43021,97.2705 L 204.58021,95.9305 L 206.55021,95.8705 L 207.03021,93.7205 L 211.04021,92.9105 L 212.31021,93.9005 L 212.70021,93.0305 L 216.66021,93.8005 L 219.34021,95.4605 L 218.06021,96.5605 L 218.84021,98.0705 L 216.65021,102.10051 L 218.84021,102.11051 L 220.89021,103.12051 L 220.24021,104.26051 L 221.73021,105.19051 L 223.23021,103.50051 L 223.72021,104.54051 L 225.56021,101.89051 L 226.00021,103.06051 L 227.64021,102.18051 L 229.57021,104.02051 L 231.17021,104.23051 L 233.67021,100.86051 L 233.54021,97.2605 L 235.09021,97.4105 L 234.49021,95.0505 L 236.84021,92.2205 L 237.70021,87.3105 L 240.12021,87.4905 L 240.10021,86.1305 L 240.17021,86.91051 L 242.65021,88.25051 L 242.30021,87.26051 L 242.98021,85.72051 L 244.27021,85.56051 L 243.89021,82.71051 L 247.51021,82.94051 L 250.25021,80.67051 L 252.40021,80.38051 L 254.29021,80.98051 L 254.83021,83.79051 L 259.04021,84.09051 L 259.95021,82.22051 L 258.81021,80.20051 L 259.54021,79.39051 L 258.80021,78.7105 L 260.86021,78.1005 L 259.93021,76.5705 L 259.94021,74.55051 L 262.68021,73.6805 L 263.34021,74.4505 L 264.09021,73.6705 L 266.32021,73.9105 L 270.51021,72.4505 L 272.22021,68.5005 L 273.32021,68.9405 L 273.93021,67.3405 L 271.50021,65.1205 L 272.29021,63.1505 L 271.08021,62.5605 L 270.44021,62.9705 L 270.00021,61.0305 L 267.84021,61.5305 L 267.05021,60.8305 L 267.72021,58.9305 L 267.14021,57.5305 L 264.23021,55.0905 L 266.59021,53.6605 L 267.40021,54.4005 L 267.67021,50.7405 L 269.97021,48.0205 L 269.37021,46.6305 L 266.30021,46.2105 L 266.42021,44.5705 L 268.75724,43.38999 L 268.70647,43.35553 L 268.62025,43.28983 L 268.53932,43.22164 L 268.46231,43.15111 L 268.38785,43.07842 L 268.3146,43.00372 L 268.24119,42.92719 L 268.16625,42.84898 L 268.08844,42.76927 L 268.00638,42.68822 L 267.94733,42.63647 L 267.86531,42.57417 L 267.76359,42.50621 L 267.64543,42.43748 L 267.5141,42.37286 L 267.37287,42.31724 L 267.22499,42.27549 L 267.07374,42.25252 L 266.92239,42.2532 L 266.77419,42.28241 L 266.63242,42.34505 L 266.50034,42.44599 L 266.42336,42.51942 L 266.34368,42.59252 L 266.26059,42.66413 L 266.17341,42.73312 L 266.08145,42.79831 L 265.984,42.85857 L 265.88037,42.91272 L 265.76987,42.95961 L 265.65181,42.9981 L 265.52549,43.02702 L 265.39022,43.04522 L 265.2453,43.05154 L 265.13078,43.05318 L 265.00172,43.05751 L 264.86132,43.06363 L 264.71276,43.07065 L 264.55924,43.07767 L 264.40395,43.08379 L 264.25008,43.08812 L 264.10082,43.08977 L 263.95937,43.08783 L 263.82891,43.0814 L 263.71264,43.06961 L 263.61376,43.05154 L 263.4857,43.01171 L 263.35869,42.95636 L 263.23424,42.88902 L 263.11391,42.8132 L 262.99924,42.73245 L 262.89176,42.65027 L 262.79302,42.57021 L 262.70455,42.49577 L 262.62789,42.4305 L 262.56459,42.37791 L 262.51619,42.34153 L 262.48422,42.32489 L 262.39681,42.30706 L 262.29077,42.29136 L 262.16904,42.27869 L 262.03457,42.26992 L 261.89029,42.26593 L 261.73914,42.26761 L 261.58407,42.27583 L 261.428,42.29148 L 261.27389,42.31544 L 261.12467,42.34859 L 260.98329,42.39182 L 260.85267,42.44599 L 260.75342,42.50513 L 260.66099,42.58059 L 260.57419,42.66867 L 260.49181,42.76564 L 260.41267,42.86778 L 260.33556,42.97137 L 260.25929,43.07268 L 260.18266,43.168 L 260.10448,43.25359 L 260.02355,43.32575 L 259.93867,43.38075 L 259.84864,43.41487 L 259.76106,43.43947 L 259.66216,43.47402 L 259.55555,43.51805 L 259.44484,43.57108 L 259.33364,43.63263 L 259.22555,43.70224 L 259.12419,43.77944 L 259.03317,43.86375 L 258.95609,43.95469 L 258.89657,44.05181 L 258.8582,44.15461 L 258.84461,44.26263 L 258.83967,44.40324 L 258.82602,44.5392 L 258.80539,44.67138 L 258.77954,44.80068 L 258.7502,44.92797 L 258.71911,45.05414 L 258.68803,45.18007 L 258.65868,45.30664 L 258.63283,45.43474 L 258.6122,45.56526 L 258.59855,45.69907 L 258.59361,45.83705 L 258.59622,45.97774 L 258.60311,46.12508 L 258.61285,46.27765 L 258.62401,46.43405 L 258.63518,46.59286 L 258.64492,46.75267 L 258.6518,46.91208 L 258.65442,47.06968 L 258.65133,47.22405 L 258.64112,47.37378 L 258.62235,47.51746 L 258.59361,47.65369 L 258.56533,47.78408 L 258.54602,47.91613 L 258.5334,48.04939 L 258.52516,48.1834 L 258.51903,48.31772 L 258.5127,48.45188 L 258.5039,48.58543 L 258.49033,48.71791 L 258.46971,48.84888 L 258.43974,48.97787 L 258.39813,49.10443 L 258.3426,49.22811 L 258.29131,49.3271 L 258.24086,49.42446 L 258.19094,49.5208 L 258.14125,49.61671 L 258.09148,49.71277 L 258.04132,49.80957 L 257.99047,49.90772 L 257.93862,50.00779 L 257.88546,50.11038 L 257.83069,50.21609 L 257.774,50.3255 L 257.71508,50.4392 L 257.67212,50.52837 L 257.63086,50.6245 L 257.59027,50.72614 L 257.54935,50.83186 L 257.50706,50.9402 L 257.4624,51.04971 L 257.41435,51.15894 L 257.36189,51.26645 L 257.30399,51.37079 L 257.23965,51.47051 L 257.16785,51.56416 L 257.08756,51.65029 L 257.0097,51.72781 L 256.93689,51.80466 L 256.86786,51.88122 L 256.80136,51.95787 L 256.73612,52.03498 L 256.67089,52.11293 L 256.6044,52.19209 L 256.5354,52.27283 L 256.46262,52.35554 L 256.38481,52.44058 L 256.3007,52.52833 L 256.20904,52.61917 L 256.1367,52.69606 L 256.06717,52.78183 L 255.999,52.87404 L 255.93071,52.97021 L 255.86085,53.06791 L 255.78796,53.16466 L 255.71056,53.25803 L 255.62721,53.34555 L 255.53645,53.42476 L 255.4368,53.49322 L 255.3268,53.54846 L 255.20501,53.58804 L 255.11653,53.6117 L 255.00676,53.64429 L 254.88007,53.68348 L 254.74083,53.72697 L 254.5934,53.77244 L 254.44215,53.81756 L 254.29144,53.86002 L 254.14565,53.89751 L 254.00914,53.9277 L 253.88628,53.94829 L 253.78143,53.95695 L 253.69897,53.95137 L 253.57103,53.92608 L 253.42291,53.89621 L 253.25909,53.86342 L 253.08403,53.82936 L 252.90222,53.79567 L 252.71813,53.76402 L 252.53624,53.73604 L 252.36102,53.7134 L 252.19696,53.69774 L 252.04851,53.69071 L 251.92017,53.69396 L 251.81641,53.70915 L 251.70293,53.73759 L 251.59011,53.76838 L 251.47822,53.80201 L 251.36757,53.83898 L 251.25844,53.87979 L 251.15111,53.92494 L 251.04589,53.97491 L 250.94305,54.03022 L 250.84289,54.09136 L 250.7457,54.15882 L 250.65177,54.2331 L 250.56137,54.3147 L 250.4996,54.36827 L 250.41495,54.43344 L 250.31251,54.50766 L 250.19739,54.58838 L 250.07468,54.67305 L 249.94949,54.75913 L 249.82692,54.84407 L 249.71206,54.92532 L 249.61003,55.00033 L 249.52591,55.06656 L 249.46481,55.12145 L 249.43184,55.16246 L 249.40588,55.2187 L 249.37128,55.30168 L 249.32919,55.40581 L 249.28077,55.52551 L 249.22717,55.65521 L 249.16956,55.7893 L 249.10909,55.92221 L 249.04691,56.04835 L 248.98419,56.16214 L 248.92208,56.258 L 248.86174,56.33033 L 248.80432,56.37355 L 248.71235,56.41793 L 248.61625,56.4643 L 248.51657,56.51239 L 248.41386,56.56195 L 248.30867,56.6127 L 248.20155,56.66438 L 248.09306,56.71673 L 247.98375,56.76947 L 247.87416,56.82235 L 247.76485,56.87509 L 247.65638,56.92743 L 247.54928,56.9791 L 247.4598,57.02453 L 247.36775,57.07488 L 247.2731,57.12895 L 247.17578,57.18554 L 247.07573,57.24344 L 246.9729,57.30146 L 246.86723,57.35839 L 246.75866,57.41303 L 246.64714,57.46417 L 246.5326,57.51063 L 246.41499,57.55118 L 246.29425,57.58464 L 246.19216,57.61166 L 246.06357,57.65067 L 245.9163,57.701 L 245.75814,57.76199 L 245.59693,57.83296 L 245.44048,57.91326 L 245.29659,58.00222 L 245.17309,58.09916 L 245.07779,58.20343 L 245.0185,58.31436 L 245.00304,58.43128 L 245.03921,58.55352 L 245.08396,58.62906 L 245.14069,58.70906 L 245.20677,58.79304 L 245.27962,58.88047 L 245.3566,58.97085 L 245.43512,59.06368 L 245.51256,59.15844 L 245.58631,59.25462 L 245.65376,59.35173 L 245.71231,59.44925 L 245.75934,59.54668 L 245.79223,59.6435 L 245.80529,59.6787 L 245.83662,59.76113 L 245.88117,59.88186 L 245.93389,60.03195 L 245.98972,60.20248 L 246.04362,60.3845 L 246.09052,60.56909 L 246.12537,60.74732 L 246.14312,60.91025 L 246.13872,61.04895 L 246.10711,61.15448 L 246.04324,61.21792 L 245.94468,61.26293 L 245.84427,61.30281 L 245.74225,61.33609 L 245.63883,61.36132 L 245.53424,61.37703 L 245.4287,61.38173 L 245.32245,61.37397 L 245.2157,61.35228 L 245.10867,61.31519 L 245.0016,61.26122 L 244.8947,61.18892 L 244.7882,61.09681 L 244.75403,61.05143 L 244.70766,60.97245 L 244.65176,60.86692 L 244.589,60.74189 L 244.52205,60.60441 L 244.45359,60.46153 L 244.38629,60.32031 L 244.32282,60.18778 L 244.26585,60.07101 L 244.21806,59.97704 L 244.18211,59.91293 L 244.16069,59.88572 L 243.98267,59.79549 L 243.83299,59.71351 L 243.70657,59.64223 L 243.59836,59.58408 L 243.50329,59.54154 L 243.41629,59.51702 L 243.33229,59.51299 L 243.24624,59.53189 L 243.15306,59.57617 L 243.0477,59.64827 L 242.92508,59.75064 L 242.78015,59.88572 L 242.706,59.95742 L 242.63059,60.03116 L 242.55435,60.1074 L 242.47771,60.18654 L 242.4011,60.26902 L 242.32495,60.35526 L 242.24968,60.4457 L 242.17572,60.54075 L 242.10351,60.64085 L 242.03347,60.74643 L 241.96603,60.8579 L 241.90162,60.9757 L 241.85068,61.07068 L 241.79785,61.16289 L 241.74308,61.25293 L 241.68626,61.34142 L 241.62733,61.42894 L 241.56619,61.51612 L 241.50278,61.60354 L 241.437,61.69183 L 241.36877,61.78159 L 241.29801,61.87341 L 241.22465,61.96791 L 241.1486,62.06569 L 241.07039,62.15735 L 240.97797,62.25176 L 240.87471,62.34803 L 240.76403,62.4453 L 240.64932,62.54271 L 240.53398,62.63939 L 240.42141,62.73447 L 240.31501,62.8271 L 240.21817,62.91639 L 240.13431,63.0015 L 240.0668,63.08155 L 240.01907,63.15567 L 239.93182,63.30968 L 239.85099,63.42228 L 239.77314,63.4997 L 239.69482,63.54815 L 239.61259,63.57387 L 239.52302,63.58307 L 239.42265,63.58199 L 239.30806,63.57684 L 239.17579,63.57385 L 239.0224,63.57925 L 238.84447,63.59926 L 238.63853,63.6401 L 238.51058,63.67469 L 238.39504,63.71237 L 238.28831,63.75197 L 238.18681,63.79235 L 238.08695,63.83232 L 237.98515,63.87074 L 237.8778,63.90644 L 237.76134,63.93826 L 237.63216,63.96503 L 237.48668,63.98559 L 237.32132,63.99878 L 237.13248,64.00343 L 236.98317,64.00075 L 236.8424,63.99246 L 236.70948,63.97818 L 236.58371,63.95755 L 236.46441,63.93019 L 236.35088,63.89572 L 236.24242,63.85379 L 236.13834,63.80401 L 236.03795,63.74601 L 235.94054,63.67943 L 235.84544,63.60388 L 235.75194,63.519 L 235.65416,63.42052 L 235.57016,63.32741 L 235.49774,63.23791 L 235.43465,63.15029 L 235.37868,63.0628 L 235.32759,62.97371 L 235.27915,62.88127 L 235.23115,62.78374 L 235.18136,62.67938 L 235.12754,62.56645 L 235.06747,62.4432 L 234.99892,62.3079 L 234.94246,62.19893 L 234.8879,62.09364 L 234.8349,61.99135 L 234.78312,61.89142 L 234.73221,61.79317 L 234.68183,61.69594 L 234.63164,61.59906 L 234.58128,61.50188 L 234.53043,61.40373 L 234.47872,61.30394 L 234.42583,61.20186 L 234.3714,61.09681 L 234.32715,61.01842 L 234.27254,60.93063 L 234.21081,60.83448 L 234.14521,60.73101 L 234.07897,60.62125 L 234.01532,60.50626 L 233.95752,60.38707 L 233.90879,60.26472 L 233.87237,60.14026 L 233.85151,60.01473 L 233.84943,59.88916 L 233.86939,59.76461 L 233.89167,59.67378 L 233.9156,59.5702 L 233.94175,59.45659 L 233.9707,59.33567 L 234.00301,59.21018 L 234.03926,59.08282 L 234.08001,58.95634 L 234.12585,58.83346 L 234.17733,58.7169 L 234.23504,58.60939 L 234.29954,58.51365 L 234.3714,58.43241 L 234.45695,58.35766 L 234.5535,58.28565 L 234.65823,58.2158 L 234.7683,58.14748 L 234.88087,58.08012 L 234.99312,58.0131 L 235.1022,57.94583 L 235.20529,57.8777 L 235.29954,57.80812 L 235.38212,57.73648 L 235.4502,57.66219 L 235.50094,57.58464 L 235.55846,57.4866 L 235.62898,57.38595 L 235.70945,57.28332 L 235.79682,57.17933 L 235.88806,57.07462 L 235.98012,56.9698 L 236.06997,56.86549 L 236.15455,56.76233 L 236.23083,56.66093 L 236.29578,56.56191 L 236.34633,56.46592 L 236.37946,56.37355 L 236.41024,56.24802 L 236.43556,56.1302 L 236.45593,56.01802 L 236.4719,55.9094 L 236.484,55.80228 L 236.49275,55.69459 L 236.4987,55.58424 L 236.50238,55.46918 L 236.50431,55.34731 L 236.50503,55.21659 L 236.50507,55.07492 L 236.50496,54.92024 L 236.50486,54.77298 L 236.50491,54.62606 L 236.50564,54.47971 L 236.50759,54.33415 L 236.51127,54.18961 L 236.51723,54.04629 L 236.526,53.90444 L 236.5381,53.76425 L 236.55406,53.62597 L 236.57443,53.4898 L 236.59972,53.35598 L 236.63047,53.22471 L 236.66141,53.11073 L 236.69711,52.98544 L 236.73561,52.85075 L 236.77491,52.70856 L 236.81305,52.56076 L 236.84805,52.40927 L 236.87794,52.25599 L 236.90073,52.10281 L 236.91446,51.95164 L 236.91714,51.80438 L 236.90681,51.66292 L 236.88148,51.52919 L 236.85078,51.41505 L 236.8151,51.28813 L 236.77589,51.15079 L 236.7346,51.00536 L 236.6927,50.85421 L 236.65166,50.6997 L 236.61292,50.54417 L 236.57795,50.38997 L 236.54821,50.23947 L 236.52516,50.09502 L 236.51026,49.95896 L 236.50496,49.83366 L 236.50676,49.69474 L 236.51086,49.55152 L 236.51532,49.40569 L 236.51824,49.25897 L 236.51766,49.11309 L 236.51167,48.96975 L 236.49834,48.83068 L 236.47573,48.69758 L 236.44192,48.57217 L 236.39497,48.45616 L 236.33296,48.35128 L 236.25396,48.25924 L 236.18104,48.17695 L 236.12188,48.08693 L 236.07348,47.99046 L 236.03283,47.88886 L 235.99694,47.78343 L 235.96279,47.67549 L 235.92739,47.56634 L 235.88773,47.45728 L 235.84081,47.34962 L 235.78362,47.24467 L 235.71316,47.14375 L 235.62644,47.04814 L 235.58122,46.99856 L 235.52494,46.92828 L 235.45941,46.84182 L 235.38641,46.74368 L 235.30773,46.63838 L 235.22514,46.53041 L 235.14045,46.4243 L 235.05544,46.32454 L 234.97189,46.23565 L 234.89159,46.16214 L 234.81634,46.10851 L 234.74791,46.07927 L 234.63875,46.05613 L 234.51717,46.03598 L 234.38488,46.01865 L 234.24356,46.00395 L 234.09491,45.99168 L 233.94061,45.98166 L 233.78235,45.97369 L 233.62183,45.9676 L 233.46072,45.96319 L 233.30074,45.96027 L 233.14355,45.95866 L 232.99086,45.95816 L 232.85913,45.95827 L 232.71533,45.95793 L 232.56287,45.95617 L 232.40512,45.95203 L 232.24547,45.94452 L 232.08731,45.93267 L 231.93403,45.91551 L 231.78901,45.89207 L 231.65565,45.86136 L 231.53732,45.82242 L 231.43741,45.77427 L 231.35932,45.71594 L 231.27106,45.62846 L 231.19209,45.54523 L 231.121,45.4648 L 231.05641,45.3857 L 230.99692,45.30648 L 230.94114,45.22567 L 230.88767,45.14183 L 230.83513,45.05348 L 230.78211,44.95918 L 230.72723,44.85747 L 230.66909,44.74688 L 230.60629,44.62596 L 230.55387,44.53018 L 230.49878,44.43717 L 230.44241,44.34528 L 230.38612,44.25283 L 230.33131,44.15817 L 230.27933,44.05963 L 230.23158,43.95555 L 230.18942,43.84426 L 230.15424,43.7241 L 230.1274,43.59341 L 230.11029,43.45051 L 230.10428,43.29376 L 230.09751,43.15751 L 230.07714,43.0135 L 230.04304,42.86819 L 229.99511,42.72803 L 229.93324,42.59948 L 229.85731,42.489 L 229.76721,42.40304 L 229.66283,42.34806 L 229.54406,42.33052 L 229.41078,42.35687 L 229.26288,42.43358 L 229.10025,42.5671 L 229.00577,42.65731 L 228.91901,42.73634 L 228.83654,42.80481 L 228.75491,42.86338 L 228.6707,42.91268 L 228.58045,42.95334 L 228.48073,42.98599 L 228.36811,43.01129 L 228.23913,43.02985 L 228.09036,43.04232 L 227.91837,43.04934 L 227.71971,43.05154 L 227.60027,43.04515 L 227.4624,43.02832 L 227.31017,43.00452 L 227.14762,42.97724 L 226.97882,42.94995 L 226.80781,42.92615 L 226.63866,42.90932 L 226.47541,42.90293 L 226.32214,42.91048 L 226.18288,42.93544 L 226.0617,42.9813 L 225.96266,43.05154 L 225.89365,43.12146 L 225.82732,43.197 L 225.76663,43.27762 L 225.71453,43.36276 L 225.67399,43.4519 L 225.64798,43.54447 L 225.63944,43.63993 L 225.65135,43.73774 L 225.68667,43.83735 L 225.74835,43.93821 L 225.83936,44.03979 L 225.96266,44.14152 L 226.02037,44.18618 L 226.09641,44.24891 L 226.18727,44.32571 L 226.28943,44.41257 L 226.39938,44.50549 L 226.51361,44.60046 L 226.62861,44.69349 L 226.74086,44.78057 L 226.84686,44.85769 L 226.94308,44.92085 L 227.02603,44.96605 L 227.09219,44.98929 L 227.24155,45.01722 L 227.38955,45.04392 L 227.53531,45.07043 L 227.67791,45.09781 L 227.81648,45.12709 L 227.95012,45.15934 L 228.07792,45.1956 L 228.19901,45.23691 L 228.31248,45.28433 L 228.41743,45.33891 L 228.51298,45.40169 L 228.59824,45.47373 L 228.66777,45.53419 L 228.75013,45.59708 L 228.84109,45.66333 L 228.93643,45.73387 L 229.03195,45.80962 L 229.12343,45.89151 L 229.20664,45.98046 L 229.27738,46.07741 L 229.33143,46.18328 L 229.36457,46.299 L 229.37258,46.4255 L 229.35125,46.56371 L 229.31876,46.70067 L 229.29224,46.8304 L 229.26882,46.95309 L 229.24563,47.06895 L 229.2198,47.1782 L 229.18846,47.28102 L 229.14872,47.37764 L 229.09773,47.46826 L 229.03261,47.55307 L 228.95049,47.6323 L 228.84849,47.70614 L 228.72374,47.7748 L 228.60708,47.82915 L 228.49653,47.87573 L 228.39033,47.91388 L 228.28675,47.943 L 228.18405,47.96244 L 228.08047,47.97159 L 227.97428,47.96979 L 227.86374,47.95644 L 227.7471,47.93089 L 227.62263,47.89252 L 227.48858,47.8407 L 227.3432,47.7748 L 227.24006,47.72139 L 227.13553,47.66119 L 227.02937,47.59585 L 226.92136,47.52702 L 226.81126,47.45633 L 226.69884,47.38545 L 226.58387,47.31601 L 226.46612,47.24966 L 226.34535,47.18806 L 226.22134,47.13284 L 226.09386,47.08565 L 225.96266,47.04814 L 225.84998,47.02186 L 225.72967,46.99482 L 225.6039,46.96649 L 225.47482,46.93632 L 225.34458,46.90377 L 225.21536,46.86829 L 225.0893,46.82936 L 224.96857,46.78641 L 224.85533,46.73892 L 224.75173,46.68633 L 224.65994,46.62811 L 224.58212,46.56371 L 224.49821,46.48366 L 224.41228,46.40379 L 224.32438,46.32455 L 224.23456,46.24642 L 224.14286,46.16983 L 224.04934,46.09527 L 223.95404,46.02318 L 223.85701,45.95402 L 223.7583,45.88826 L 223.65797,45.82635 L 223.55604,45.76876 L 223.45258,45.71594 L 223.34383,45.65761 L 223.23492,45.59068 L 223.12557,45.51981 L 223.01546,45.44967 L 222.90431,45.3849 L 222.79182,45.33019 L 222.67769,45.29017 L 222.56162,45.26952 L 222.44332,45.27289 L 222.32249,45.30494 L 222.19883,45.37033 L 222.07204,45.47373 L 221.99875,45.55116 L 221.93036,45.63546 L 221.86541,45.72528 L 221.80243,45.8193 L 221.73996,45.9162 L 221.67653,46.01465 L 221.61066,46.11332 L 221.5409,46.2109 L 221.46577,46.30605 L 221.38381,46.39745 L 221.29355,46.48378 L 221.19352,46.56371 L 221.11475,46.62175 L 221.02547,46.69004 L 220.92856,46.76728 L 220.8269,46.85219 L 220.72339,46.94349 L 220.62092,47.03989 L 220.52236,47.14012 L 220.43062,47.24289 L 220.34857,47.34691 L 220.27911,47.45091 L 220.22512,47.55359 L 220.18949,47.65369 L 220.15536,47.77979 L 220.11948,47.9004 L 220.08138,48.01581 L 220.04059,48.12627 L 219.99666,48.23207 L 219.94911,48.33347 L 219.89749,48.43075 L 219.84132,48.52417 L 219.78015,48.61402 L 219.71351,48.70055 L 219.64094,48.78405 L 219.56197,48.86478 L 219.48409,48.93936 L 219.40439,49.01321 L 219.32197,49.08524 L 219.2359,49.15435 L 219.14528,49.21944 L 219.0492,49.27941 L 218.94674,49.33317 L 218.837,49.37962 L 218.71906,49.41766 L 218.59201,49.44619 L 218.45494,49.46411 L 218.30694,49.47033 L 218.10033,49.46675 L 217.91654,49.45638 L 217.75143,49.43982 L 217.60086,49.41763 L 217.46071,49.39039 L 217.32685,49.35869 L 217.19514,49.32309 L 217.06146,49.28419 L 216.92167,49.24255 L 216.77165,49.19875 L 216.60726,49.15338 L 216.42438,49.107 L 216.29195,49.0719 L 216.17406,49.03362 L 216.06901,48.99118 L 215.9751,48.94358 L 215.89061,48.88985 L 215.81386,48.829 L 215.74313,48.76005 L 215.67673,48.682 L 215.61296,48.59389 L 215.5501,48.49471 L 215.48647,48.38349 L 215.42035,48.25924 L 215.36799,48.17194 L 215.30165,48.08138 L 215.22437,47.98778 L 215.13922,47.8914 L 215.04926,47.79246 L 214.95755,47.69119 L 214.86715,47.58785 L 214.78111,47.48265 L 214.7025,47.37585 L 214.63438,47.26767 L 214.5798,47.15836 L 214.54183,47.04814 L 214.52307,46.95047 L 214.50953,46.8301 L 214.49954,46.69202 L 214.4914,46.5412 L 214.48343,46.38263 L 214.47394,46.22128 L 214.46126,46.06214 L 214.44368,45.91018 L 214.41954,45.77037 L 214.38714,45.64771 L 214.34479,45.54717 L 214.29082,45.47373 L 214.18547,45.37792 L 214.08824,45.30258 L 213.99728,45.24733 L 213.9108,45.21182 L 213.82696,45.19568 L 213.74394,45.19856 L 213.65993,45.22008 L 213.57311,45.2599 L 213.48166,45.31765 L 213.38375,45.39296 L 213.27756,45.48547 L 213.16129,45.59483 L 213.08096,45.66996 L 213.00132,45.74023 L 212.92198,45.80684 L 212.84255,45.87101 L 212.76264,45.93397 L 212.68186,45.99692 L 212.59983,46.06107 L 212.51616,46.12766 L 212.43045,46.19789 L 212.34233,46.27298 L 212.25139,46.35414 L 212.15726,46.4426 L 212.07011,46.52193 L 211.98032,46.5954 L 211.8883,46.66429 L 211.79447,46.72989 L 211.69923,46.79348 L 211.603,46.85634 L 211.50618,46.91977 L 211.40919,46.98505 L 211.31244,47.05346 L 211.21634,47.1263 L 211.12129,47.20483 L 211.02772,47.29036 L 210.97675,47.3445 L 210.91681,47.41507 L 210.84882,47.49804 L 210.77368,47.58939 L 210.69229,47.68509 L 210.60555,47.7811 L 210.51438,47.8734 L 210.41969,47.95796 L 210.32236,48.03074 L 210.22332,48.08771 L 210.12346,48.12485 L 210.0237,48.13813 L 209.85457,48.13853 L 209.69431,48.1402 L 209.54204,48.14384 L 209.39693,48.15014 L 209.25814,48.1598 L 209.12481,48.17353 L 208.99609,48.19202 L 208.87115,48.21597 L 208.74913,48.24608 L 208.62919,48.28305 L 208.51047,48.32757 L 208.39215,48.38034 L 208.27103,48.4335 L 208.1401,48.48108 L 208.00147,48.52241 L 207.85729,48.55681 L 207.7097,48.58361 L 207.56084,48.60213 L 207.41283,48.61168 L 207.26783,48.61161 L 207.12797,48.60122 L 206.99539,48.57986 L 206.87222,48.54682 L 206.7606,48.50146 Z" title="Trento" id="IT-32-trento" />
    </a>
    <a class="italy-map__link" href="{{ '/regioni/umbria/' | relative_url }}" aria-label="Umbria">

      <path
      d="m 297.82021,254.98051 -0.52,-0.58 0,0 -0.19,-0.06 0,0 0.24,-0.68 0.66,0.31 0,0 0.1,0.53 0,0 -0.29,0.48 z m -11.03,-1.48 0.71,1.17 3.09,-0.04 0.35,0.56 2.08,-1.68 1.88,-0.12 -0.51,0.78 0.48,1.44 -2.92,2.7 1.36,1.42 1.43,-0.73 1.27,1.73 1.42,-2.09 0.99,0.13 0.83,1.42 0.92,0.05 0.29,-0.86 0.91,0.42 6.36,7.29 2.13,-1.29 2.23,0.82 1.32,-2.69 2.08,0.56 -0.37,2.01 0.9,0.84 -1.8,1.69 0.05,0.84 2.27,2.96 0.38,2.91 -0.62,0.7 1.88,1.34 0.67,3.42 1.39,0.69 -0.14,2.9 -1.62,1.55 0.67,1.54 2.07,0.42 0.57,1.71 -0.24,2.77 0.75,2.11 -0.87,0.66 0.94,1.95 -0.56,1.49 2.69,1.61 0.2,0.87 1.11,0.13 0.12,4.04 1.21,-1.36 0.02,-1.71 1.3,0.77 1.4,-1.39 3.01,2.3 2.5,3.94 2.67,-0.61 1.25,-1.82 1.41,3.62 -0.25,1.82 -0.92,1.9 -0.38,-0.77 -1.92,0.78 -0.25,2 0,0 -0.75,4.46 -1.33,1.28 -1.62,-0.64 -0.05,0.78 -2.8,1.72 -2.06,-1.08 -0.71,1.53 -3.25,-0.04 -0.79,0.97 -2.01,-0.99 -0.58,1.17 0.62,2.55 -2.09,0.67 -1.85,1.63 -2.05,-0.1 -0.17,1.33 -3.06,0.88 1.37,2.04 -2.99,1.97 -1.2,0.05 -0.89,-1.85 -1.19,0.08 -0.22,3.88 -4.33,3.36 -0.87,-1 0.05,-1.68 -3.64,0.53 0.97,-1.42 -2.29,-0.79 0.02,-2.06 0.68,-0.23 -0.74,-0.68 0.25,-1.86 -1.47,-0.16 -2,1.62 -1.23,-1.26 -1.87,0.22 0.69,-0.46 -1.52,-0.8 0.75,-0.67 -1.04,-0.85 0.21,-1.95 -1.67,-0.78 -0.55,-4.47 -1.67,-2.06 -1.62,-0.68 -1.38,1.19 -0.67,-0.21 -0.12,0.75 -1.01,-1.07 -3.68,1.31 -4.14,-2.56 -1.29,-2.11 1.85,-1.04 1.01,-1.98 -2.78,-1.79 -1.62,-3.88 0,0 1.95,-2.34 1.28,-0.08 -0.15,-1.81 -1.09,-0.75 2.42,-9.85 -1.27,-1.36 -0.84,1.05 -0.78,-1.57 0.33,-1.22 -0.88,-2.43 0.49,-1.32 5.18,-3.05 1,-2.73 -0.5,-1.32 0.83,-0.36 2.2,1.23 6.67,-4.18 -1.54,-1.26 -0.9,2.23 -2.23,-0.84 -0.39,-0.9 0.59,-1.71 -1.01,-2.29 -0.65,-0.6 -1.42,0.54 -0.11,-2.66 -2.14,0.22 -0.33,-1 1.71,-1.74 1.09,0.34 1.01,-1.7 2.13,-0.9 0.1,-0.56 -2.61,-1.48 0.17,-1.76 0.55,-0.56 2.19,0.18 0.77,-2.59 2.38,-3.25 z"
      title="Umbria"
      id="IT-55" />

    </a>
    <a class="italy-map__link" href="{{ '/regioni/valle-d-aosta/' | relative_url }}" aria-label="Valle d'Aosta">

      <path
      d="m 49.07021,82.450505 0.58,1.17 3.82,-0.54 0.91,1.48 1.32,0.54 0.64,1.93 1.6,-1.15 2.47,1.61 1.17,-0.66 2.07,0.73 0,0 0.7,4.06 -0.7,5.05 1.71,3.1 1.62,0.600005 0.36,1.2 -1.66,2.83 1.82,3.73 -1.2,0.24 -0.73,3.04 -1.01,-0.65 -2.64,0.2 -4.89,3.47 -0.68,-0.61 -2.32,0.38 -1.97,-1.3 -1.41,0.66 -0.13,-0.87 -2.01,-1.25 -2.08,1.13 -1.85,-0.47 -1.23,0.39 -0.93,1.57 -3.54,2.84 -0.96,-0.67 -1.88,0.89 -2.8,0.07 -2.39,3.01 -3.07,-1.07 -0.9,0.68 -0.36,-2.85 -1.77,3.56 0,0 -2.72,-0.39 0.27,-1.63 -2.79,-0.76 -0.23,-5.06 -0.95,-1 1.17,-3.79 -1.74,-1.05 -2.6,0.18 -0.52,-1.45 -2.45,-0.92 -2.5199999,-2.91 0.3699999,-1.2 -0.7599999,-2.950005 1.0099999,-4.14 1.19,-0.34 0.99,0.64 0.73,-1.19 1.79,0.62 1.49,-0.47 0.53,-1.03 2.31,-0.81 0.32,-2.06 2.06,-1.74 3.16,4.8 2.57,-1.55 1.86,1.5 1.24,-2.11 2.13,-0.06 1.83,-2.42 4.72,1.84 4.45,-2.8 -0.04,-0.99 1.35,-1.05 2.22,0.42 0.3,-2.13 z"
      title="Valle d'Aosta"
      id="IT-23" />

    </a>
    <a class="italy-map__link" href="{{ '/regioni/veneto/' | relative_url }}" aria-label="Veneto">

      <path
      d="m 303.90021,157.45051 -1.35,0.77 0.94,-1.05 -0.9,-0.37 1.6,-0.18 -0.29,0.83 z m -1.64,-2.1 1.19,0.9 -2.37,0.53 0.62,-1.75 0.56,0.32 z m -0.37,-124.080005 2.84,1.95 5.54,-0.56 2.07,0.74 0.89,1.09 0,0 -0.19,1.8 0.97,1.66 -0.7,2.27 0.88,1.16 -2.55,0.06 -3.46,2.18 -0.12,0.94 1.23,0.8 0.4,1.74 -1.82,-0.78 -1.04,0.79 -1.85,-0.79 -1.57,1.25 -0.41,-0.43 -1.48,2.04 -0.28,1.75 -2,1.76 0.32,1.39 -0.6,-0.27 0.18,0.6 -1.83,0.93 -0.33,2.02 -1.91,-0.27 -1.04,0.84 0.04,1.99 -1.8,1.89 2.12,2.85 2.08,-0.01 0.26,1.58 1.84,-0.1 0.3,2.13 2.42,1.95 -0.45,3.58 -2.9,1.96 -1.77,2.81 0.92,0.8 0.71,2.6 0.02,3.47 1.43,0.04 1.05,1.51 1.48,0.01 1.26,4.53 1.39,1.26 -0.21,1.2 2,1.05 0.68,-1.6 1.24,0.66 0.12,0.9 1.12,0.52 0.05,1.62 3.88,-3.59 0.67,0.68 1.98,-2.1 1.13,0.84 -0.43,1 0.63,0.73 0.55,-1.04 2.17,-1.08 0.64,0.07 -0.4,1.1 1.25,1.14 1.52,-0.94 0.49,1.09 1.55,-0.5 -0.45,-1.41 0.59,-0.24 0.58,1.58 -0.04,0.31 0.4,0.37 -0.17,0.82 0.82,0.35 -1.09,0.64 2.03,1.93 -0.49,0.26 0.65,1.300005 -0.35,1.17 0.97,-0.71 0.57,2.67 0.79,0.2 -0.37,0.8 1.01,0.81 -0.17,1.32 0.98,-0.12 -0.12,0.61 1.07,0.6 0,0 -0.56,0.77 -4.92,0.34 0.09,-0.75 -0.91,-0.35 -0.48,1.36 -3,0.39 -0.95,1.29 -6.26,3.91 -15.92,7.41 -1.53,1.97 -1.67,-0.84 -1.92,2.58 -1.44,2.81 -0.1,1.08 0.83,0.39 -1.08,0.4 -1.56,6.49 1.36,0.42 -1.08,1.07 0.57,2.52 1.28,1.45 -0.29,5.3 1.44,1.22 1.58,3.1 -0.51,-0.34 -0.8,0.95 0.91,0.56 0.86,-0.63 -0.24,1.11 0.51,0.14 0.55,-0.31 -0.44,-1.76 0.49,0.03 4.3,5.37 -0.66,4.47 -1.07,0.98 0.04,2.85 -1.6,-0.55 0.34,-2.86 -1.02,-0.44 -0.92,0.38 -0.75,1.72 0.87,1.09 -0.38,2.07 0.78,0.66 0.65,-0.45 0.06,0.72 -1.32,-0.13 -0.11,1.44 -2.41,-1.92 0,0 -0.6,-2.18 -1.99,-0.51 -0.64,-0.95 -0.33,-2.89 0.63,-1.24 -0.83,-1.08 -1.08,0.01 -1.46,1.29 -2.15,-0.17 -0.81,-1.05 -1.48,0.97 -2.29,-3.08 -6.7,-1.07 -2.2,0.78 -6.27,-0.08 -2.92,1.36 -0.74,2.22 -3.19,0.9 -2.01,1.9 -1.24,0.12 -0.71,-0.24 -0.43,-1.62 -2.1,-1.41 -5.7,0.38 -0.16,-1.49 0,0 -0.23,-1.03 -7.98,-4.28 0,-2.46 -1.42,0.85 -3.13,-1.16 0.59,-1.62 -0.41,-1.01 1.27,-1.02 -3,-1.12 -0.93,1.68 -1.36,-0.73 -0.24,1.27 -1.2,-0.22 -2.32,-1.95 0.96,-1.88 -0.87,-0.55 -1.61,0.32 0.38,-1.71 -0.79,-1.22 -2.87,-1.3 0.1,-1.3 -1.82,-0.48 -0.11,-0.68 -2.64,-0.59 -1.12,-2.35 -1.96,-1.92 -2.41,2.01 -0.51,-0.99 -1.49,-0.38 0.68,-1.91 -0.99,-1.49 1.3,-0.97 -0.96,-0.75 0.96,-2.57 -2.46,-1.13 -0.7,0.81 -0.83,-0.18 0.41,-1.98 -1.13,-11.75 11.09,-16.500005 0,0 2.68,1.66 -1.28,1.1 0.77,1.52 -2.18,4.030005 2.18,0.01 2.05,1.02 -0.65,1.13 1.49,0.93 1.49,-1.69 0.49,1.05 1.85,-2.66 0.44,1.17 1.64,-0.88 1.93,1.84 1.6,0.21 2.5,-3.37 -0.13,-3.600005 1.55,0.15 -0.6,-2.37 2.35,-2.83 0.87,-4.9 2.42,0.18 -0.02,-1.36 0.07,0.78 2.48,1.34 -0.35,-0.98 0.68,-1.54 1.29,-0.16 -0.37,-2.84 3.62,0.23 2.74,-2.26 2.15,-0.29 1.89,0.6 0.54,2.81 4.21,0.3 0.91,-1.87 -1.14,-2.02 0.73,-0.8 -0.73,-0.68 2.06,-0.6 -0.93,-1.54 0.01,-2.02 2.74,-0.87 0.67,0.77 0.74,-0.77 2.24,0.24 4.18,-1.46 1.71,-3.95 1.1,0.44 0.6,-1.6 -2.42,-2.22 0.79,-1.97 -1.21,-0.58 -0.64,0.41 -0.44,-1.94 -2.16,0.5 -0.79,-0.7 0.68,-1.89 -0.58,-1.41 -2.92,-2.43 2.36,-1.44 0.81,0.74 0.27,-3.66 2.3,-2.71 -0.59,-1.39 -3.08,-0.42 0.12,-1.65 4.87,-2.46 1.57,0.33 1.17,-1.18 1.16,-0.07 0.58,0.77 2.47,-3.92 -0.17,-1.48 1.52,-2.69 -0.31,-2.33 3.94,3.08 0.83,-0.29 1.55,0.98 0.11,2.26 3.34,-2.65 1.21,0.76 2.98,-0.94 0.75,0.89 1.26,-0.06 0.51,-0.46 -0.38,-1.32 0.87,0.2 1.67,-1.88 2.47,-0.92 0,0 1.41,-0.09 z"
      title="Veneto"
      id="IT-34" />

    </a>
  </g>
</svg>
