<?xml version="1.0" encoding="UTF-8" standalone="no"?>
<!-- Created using Karbon14, part of koffice: http://www.koffice.org/karbon -->

<svg
   xmlns:dc="http://purl.org/dc/elements/1.1/"
   xmlns:cc="http://creativecommons.org/ns#"
   xmlns:rdf="http://www.w3.org/1999/02/22-rdf-syntax-ns#"
   xmlns:svg="http://www.w3.org/2000/svg"
   xmlns="http://www.w3.org/2000/svg"
   xmlns:sodipodi="http://sodipodi.sourceforge.net/DTD/sodipodi-0.dtd"
   xmlns:inkscape="http://www.inkscape.org/namespaces/inkscape"
   width="960pt"
   height="1200pt"
   id="svg2"
   version="1.1"
   inkscape:version="0.48.0 r9654"
   sodipodi:docname="regiones-italia-nacho.svg"
   inkscape:export-filename="D:\NACHO\UNED\Antigua2\Temas\nuevos\regiones-italia-nacho.png"
   inkscape:export-xdpi="299"
   inkscape:export-ydpi="299">
  <metadata
     id="metadata64">
    <rdf:RDF>
      <cc:Work
         rdf:about="">
        <dc:format>image/svg+xml</dc:format>
        <dc:type
           rdf:resource="http://purl.org/dc/dcmitype/StillImage" />
        <dc:title></dc:title>
      </cc:Work>
    </rdf:RDF>
  </metadata>
  <sodipodi:namedview
     pagecolor="#ffffff"
     bordercolor="#666666"
     borderopacity="1"
     objecttolerance="10"
     gridtolerance="10"
     guidetolerance="10"
     inkscape:pageopacity="0"
     inkscape:pageshadow="2"
     inkscape:window-width="1280"
     inkscape:window-height="952"
     id="namedview62"
     showgrid="false"
     inkscape:zoom="0.51134051"
     inkscape:cx="564.80433"
     inkscape:cy="896.23273"
     inkscape:window-x="-4"
     inkscape:window-y="-4"
     inkscape:window-maximized="1"
     inkscape:current-layer="svg2"
     inkscape:snap-page="true" />
  <defs
     id="defs4" />
  <g
     id="layer5" />
  <g
     id="layer2"
     style="stroke:#000000;stroke-opacity:1">
    <path
       id="path4653"
       stroke-miterlimit="3"
       d="M0 29.609C10.7172 3.11299 39.438 45.82 57.9184 21.1955C63.4502 9.35662 68.404 -7.03445 85.6672 3.24385"
       transform="translate(876.037, 922.981)"
       stroke-linejoin="miter"
       stroke-linecap="butt"
       stroke-width="2"
       stroke="#000000"
       fill="none"
       style="stroke:#000000;stroke-opacity:1" />
    <path
       id="path5558"
       stroke-miterlimit="3"
       d="M31.3823 0C23.0541 11.2759 9.10263 1.35588 0 10.1339"
       transform="translate(860.584, 806.253)"
       stroke-linejoin="miter"
       stroke-linecap="butt"
       stroke-width="2"
       stroke="#000000"
       fill="none"
       style="stroke:#000000;stroke-opacity:1" />
    <path
       id="path4663"
       stroke-miterlimit="2"
       d="M0 0C17.7159 18.2305 1.62939 22.8454 30.9465 28.7672C31.5542 65.3269 85.6725 31.4606 73.2254 69.6983C73.1757 82.3143 81.6842 78.449 87.1731 89.7883"
       transform="translate(892.402, 805.926)"
       stroke-linejoin="miter"
       stroke-linecap="butt"
       stroke-width="2"
       stroke="#000000"
       fill="none"
       style="stroke:#000000;stroke-opacity:1" />
    <path
       id="path4669"
       stroke-miterlimit="4"
       d="M18.8689 0C6.82268 15.2114 28.8725 33.0041 5.575 36.3948C-11.3946 39.9245 16.1044 60.7786 12.7668 72.3537C31.9326 73.991 19.8273 102.357 39.5725 99.8132C44.6348 98.2975 50.602 102.619 55.0457 104.826"
       transform="translate(806.192, 711.561)"
       stroke-linejoin="miter"
       stroke-linecap="butt"
       stroke-width="2"
       stroke="#000000"
       fill="none"
       style="stroke:#000000;stroke-opacity:1" />
    <path
       id="path7330"
       stroke-miterlimit="3"
       d="M17.746 0C30.312 24.0357 -8.7327 17.11 1.83694 34.6513C11.6934 47.0043 11.513 60.4406 24.284 73.2254C40.6833 86.7964 43.354 95.734 30.6041 112.017C29.5449 115.245 29.767 118.714 29.2965 122.042"
       transform="translate(843.273, 815.951)"
       stroke-linejoin="miter"
       stroke-linecap="butt"
       stroke-width="2"
       stroke="#000000"
       fill="none"
       style="stroke:#000000;stroke-opacity:1" />
    <path
       id="path8227"
       stroke-miterlimit="2"
       d="M0 33.6136C18.2193 37.5005 14.3582 -10.8969 27.0723 11.4135C37.6219 17.7508 39.0591 -14.0191 59.9801 7.70862C74.876 25.7216 91.0937 3.59209 102.259 8.14448C105.992 5.02851 108.857 1.16807 114.245 1.17064"
       transform="translate(694.688, 762.912)"
       stroke-linejoin="miter"
       stroke-linecap="butt"
       stroke-width="2"
       stroke="#000000"
       fill="none"
       style="stroke:#000000;stroke-opacity:1" />
    <path
       id="path9115"
       stroke-miterlimit="2"
       d="M36.6127 0C34.0681 17.08 12.9094 31.1611 12.6401 44.0224C5.99021 59.2306 21.6721 55.3961 0 76.4944"
       transform="translate(754.45, 693.69)"
       stroke-linejoin="miter"
       stroke-linecap="butt"
       stroke-width="2"
       stroke="#000000"
       fill="none"
       style="stroke:#000000;stroke-opacity:1" />
    <path
       id="path10004"
       stroke-miterlimit="2"
       d="M80.4693 0C66.0129 10.3149 46.2568 4.69435 39.28 20.9216C34.5651 37.5494 18.8624 31.2159 11.3846 46.8556C6.56087 58.4392 16.8829 78.0685 31.4344 84.34C21.9513 100.759 20.042 92.4359 4.41072 92.8394C-11.9491 112.13 22.07 104.293 27.5116 119.427C31.0425 127.562 48.853 150.593 58.0222 133.375C65.9904 141.66 87.9516 138.246 89.8404 158.437C90.348 163.409 83.2842 170.01 85.811 175.078"
       transform="translate(632.356, 593.659)"
       stroke-linejoin="miter"
       stroke-linecap="butt"
       stroke-width="2"
       stroke="#000000"
       fill="none"
       style="stroke:#000000;stroke-opacity:1" />
    <path
       id="path10022"
       stroke-miterlimit="4"
       d="M177.546 21.4127C163.377 -2.47266 150.687 23.5417 134.76 24.0469C121.108 26.6958 121.472 55.6203 107.954 44.9685C110.207 68.429 84.0411 56.4624 91.1735 39.3022C71.2479 50.67 75.6819 3.7091 58.2657 20.7779C37.968 23.3851 53.1602 -7.70013 34.9469 1.81777C15.4086 1.26775 42.2519 22.9764 19.6916 28.6235C7.26894 36.5045 17.5358 47.6989 0 55.5068"
       transform="translate(486.969, 603.174)"
       stroke-linejoin="miter"
       stroke-linecap="butt"
       stroke-width="2"
       stroke="#000000"
       fill="none"
       style="stroke:#000000;stroke-opacity:1" />
    <path
       id="path10911"
       stroke-miterlimit="2"
       d="M38.0087 39.1418C24.414 34.8474 15.5375 38.2581 7.34242 30.358C7.22401 19.237 -3.4929 10.9294 1.17835 0"
       transform="translate(615.578, 557.656)"
       stroke-linejoin="miter"
       stroke-linecap="butt"
       stroke-width="2"
       stroke="#000000"
       fill="none"
       style="stroke:#000000;stroke-opacity:1" />
    <path
       id="path16252"
       stroke-miterlimit="4"
       d="M0 2.15744C1.03116 11.468 6.60991 20.4152 20.0332 12.3281C26.5282 9.17346 16.5758 4.62311 23.1152 0"
       transform="translate(585.628, 461.188)"
       stroke-linejoin="miter"
       stroke-linecap="butt"
       stroke-width="2"
       stroke="#000000"
       fill="none"
       style="stroke:#000000;stroke-opacity:1" />
    <path
       id="path12693"
       stroke-miterlimit="4"
       d="M 0,26.0432 C 0.79485,11.8817 3.80553,6.28804 14.9479,1.69512 18.2534,-1.99014 33.797831,1.8523802 38.137331,0"
       transform="translate(548.027,462.267)"
       inkscape:connector-curvature="0"
       style="fill:none;stroke:#000000;stroke-width:2;stroke-linecap:butt;stroke-linejoin:miter;stroke-miterlimit:4;stroke-opacity:1"
       sodipodi:nodetypes="ccc" />
    <path
       id="path12691"
       stroke-miterlimit="4"
       d="M0 6.68321C15.3018 9.24985 4.90928 -7.23332 18.0299 3.90936C34.7507 16.1121 12.5862 6.11087 8.32149 19.0113C18.2526 27.8132 23.8061 23.9093 25.8891 35.6543C37.7431 34.8775 41.1971 52.9382 53.9356 44.4381C61.2985 41.3474 61.5335 62.4649 66.8801 68.7862C67.877 71.0333 67.9317 73.5036 69.4999 75.5667"
       transform="translate(547.719, 482.397)"
       stroke-linejoin="miter"
       stroke-linecap="butt"
       stroke-width="2"
       stroke="#000000"
       fill="none"
       style="stroke:#000000;stroke-opacity:1" />
    <path
       id="path12701"
       stroke-miterlimit="4"
       d="M31.8801 0C26.1997 14.0145 26.9222 15.914 17.3774 28.0227C22.8943 38.292 46.1807 36.041 31.5548 45.128C21.7441 50.6675 7.86986 47.9176 4.74105 61.771C10.0086 71.7584 9.99483 79.2094 7.05257 92.4372C5.79193 94.7633 1.78739 99.2939 0 100.967"
       transform="translate(525.565, 502.665)"
       stroke-linejoin="miter"
       stroke-linecap="butt"
       stroke-width="2"
       stroke="#000000"
       fill="none"
       style="stroke:#000000;stroke-opacity:1" />
    <path
       id="path17141"
       stroke-miterlimit="2"
       d="M166.501 68.2961C152.452 64.2967 131.48 62.3202 126.837 45.1952C120.093 33.9537 142.333 16.9057 117.03 21.4406C110.322 12.3531 97.0035 6.30568 85.4296 16.2102C86.4185 35.2619 62.379 13.9841 54.7011 25.3633C40.9385 10.9211 24.5477 29.5091 14.6015 7.49285C10.6995 4.23554 5.74384 -2.77304 0 1.1728"
       transform="translate(382.875, 420.538)"
       stroke-linejoin="miter"
       stroke-linecap="butt"
       stroke-width="2"
       stroke="#000000"
       fill="none"
       style="stroke:#000000;stroke-opacity:1" />
    <path
       id="path17143"
       stroke-miterlimit="2"
       d="M210.223 81.042C218.692 66.6495 191.709 67.027 192.241 55.7908C178.802 48.9558 183.984 18.4645 204.663 27.4595C210.46 39.7441 223.829 45.0829 234.956 50.5604M135.796 0C126.978 22.9298 163.601 6.34099 163.038 23.3188C143.602 45.8784 184.546 25.6387 184.255 41.1603M0 72.5426C16.8325 77.8133 35.1162 71.64 32.0604 52.0859C41.9535 39.9749 46.2632 17.1646 63.0069 27.0237C76.1487 17.7654 96.1399 28.3308 108.443 13.3229C110.128 -14.9119 127.804 20.5562 136.557 11.1436"
       transform="translate(149.227, 370.932)"
       stroke-linejoin="miter"
       stroke-linecap="butt"
       stroke-width="2"
       stroke="#000000"
       fill="none"
       style="stroke:#000000;stroke-opacity:1" />
    <path
       id="path10915"
       stroke-miterlimit="2"
       d="M6.53051 0C9.17936 6.94119 0.01462 12.5895 0 18.6019"
       transform="translate(646.806, 596.472)"
       stroke-linejoin="miter"
       stroke-linecap="butt"
       stroke-width="2"
       stroke="#000000"
       fill="none"
       style="stroke:#000000;stroke-opacity:1" />
    <path
       id="path18044"
       stroke-miterlimit="2"
       d="M170.303 24.2878C171.442 1.33212 134.322 6.81549 119.427 4.57659C101.286 23.884 87.6735 3.23129 67.1233 5.66625C49.1372 1.05837 28.7753 21.4582 19.6139 0C14.3613 5.38984 9.07192 14.5207 0 10.4608"
       transform="translate(403.143, 331.268)"
       stroke-linejoin="miter"
       stroke-linecap="butt"
       stroke-width="2"
       stroke="#000000"
       fill="none"
       style="stroke:#000000;stroke-opacity:1" />
    <path
       id="path2876"
       stroke-miterlimit="2"
       d="M167.46 0C157.579 17.961 143.737 10.8001 130.034 4.35396C132.629 24.9185 100.542 22.6514 113.035 35.0825C92.4604 50.2684 126.522 58.0695 115.215 74.3104C91.0807 69.584 100.974 106.785 82.5246 93.0526C69.5206 93.0426 58.7455 103.91 53.1037 111.141C50.0299 128.689 40.1723 139.648 24.3366 134.896C21.1737 118.732 20.1487 103.808 9.51717 131.409C-2.0866 144.45 -3.73013 163.949 8.20957 172.816C-3.83318 185.97 32.953 188.134 32.4001 201.583C44.2784 211.193 51.7199 205.507 59.4238 217.928C63.4983 223.479 73.6407 221.424 73.1535 230.786"
       transform="translate(414.983, 109.2)"
       stroke-linejoin="miter"
       stroke-linecap="butt"
       stroke-width="2"
       stroke="#000000"
       fill="none"
       style="stroke:#000000;stroke-opacity:1" />
    <path
       id="path18057"
       stroke-miterlimit="2"
       d="M120.081 29.1092C106.556 18.8764 85.995 16.8563 74.0971 7.5339C61.801 -12.8817 63.5084 15.9645 49.4493 4.30248C44.3172 13.0579 30.1731 -6.26827 25.934 4.70078C9.78622 10.0994 6.05396 32.0782 11.7684 41.9673C3.52238 48.8028 19.8309 63.2704 0 57.8764"
       transform="translate(284.587, 313.056)"
       stroke-linejoin="miter"
       stroke-linecap="butt"
       stroke-width="2"
       stroke="#000000"
       fill="none"
       style="stroke:#000000;stroke-opacity:1" />
    <path
       id="path19851"
       stroke-miterlimit="2"
       d="M33.2441 0C33.8916 16.1379 20.9592 17.5893 11.0149 28.1133C-11.5227 42.0455 7.24525 54.3643 8.83563 68.6488C-3.45659 85.1026 8.13202 102.984 25.3985 107.223C35.6858 106.309 55.3483 95.7228 54.3836 110.274C57.3933 117.048 54.2514 111.919 58.0476 117.924"
       transform="translate(573.23, 117.912)"
       stroke-linejoin="miter"
       stroke-linecap="butt"
       stroke-width="2"
       stroke="#000000"
       fill="none"
       style="stroke:#000000;stroke-opacity:1" />
    <path
       id="path3779"
       stroke-miterlimit="2"
       d="M0 0C18.5692 7.98788 22.1411 20.4799 11.2259 32.196C19.8648 49.6988 -1.11728 64.5064 4.68791 80.1412C-0.69231 99.2412 20.612 105.303 35.3827 96.9997"
       transform="translate(396.929, 128.867)"
       stroke-linejoin="miter"
       stroke-linecap="butt"
       stroke-width="2"
       stroke="#000000"
       fill="none"
       style="stroke:#000000;stroke-opacity:1" />
    <path
       id="path4670"
       stroke-miterlimit="2"
       d="M20.9459 0C16.0063 23.6175 1.69951 52.027 19.6139 70.6588C43.7449 96.8944 21.6208 112.726 0 102.477C1.07686 130.28 23.8733 146.097 39.9619 149.565C44.7217 163.709 65.2625 168.57 64.5081 187.035"
       transform="translate(220.297, 184.333)"
       stroke-linejoin="miter"
       stroke-linecap="butt"
       stroke-width="2"
       stroke="#000000"
       fill="none"
       style="stroke:#000000;stroke-opacity:1" />
    <path
       id="path18964"
       stroke-miterlimit="2"
       d="M0 68.4991C15.9975 71.3346 26.3593 51.256 41.4072 58.2563C57.527 63.5982 75.4383 51.8629 70.6102 35.3733C62.8425 27.6644 66.6458 8.85015 70.063 0"
       transform="translate(98.2549, 202.402)"
       stroke-linejoin="miter"
       stroke-linecap="butt"
       stroke-width="2"
       stroke="#000000"
       fill="none"
       style="stroke:#000000;stroke-opacity:1" />
  </g>
  <path
     style="fill:none;stroke:#000000;stroke-width:3;stroke-linecap:butt;stroke-linejoin:miter;stroke-miterlimit:2;stroke-opacity:1"
     inkscape:connector-curvature="0"
     d="m 809.023,1156.0395 c -46.756,4.355 -113.308,42.0831 -151.6463,-6.3031 -22.536,6.7548 -35.8582,30.9502 -53.0684,6.9119 -49.3771,27.2953 -9.7161,73.9783 33.0904,73.8063 43.235,39.6234 107.1513,39.3424 141.1243,85.9434 27.997,5.967 49.875,17.371 47.281,-19.791 30.921,-17.714 -5.527,-23.056 4.795,-41.19 m 0.871,0.436 c -47.229,-25.8394 57.212,-102.7605 24.191,-114.633 -22.845,1.3655 -24.338,20.3809 -46.856,14.3836"
     stroke-miterlimit="2"
     id="path1968" />
  <path
     style="fill:none;stroke:#000000;stroke-width:3;stroke-linecap:butt;stroke-linejoin:miter;stroke-miterlimit:2;stroke-opacity:1"
     inkscape:connector-curvature="0"
     d="m 288.7327,791.67 c -16.6696,37.0879 -106.3742,40.5852 -93.17717,46.8343 -14.81683,39.939 48.85697,67.4067 16.95357,107.5117 37.194,18.384 -28.50743,75.833 16.1611,106.716 9.2297,41.189 48.5615,-0.388 53.0594,-19.557 62.9454,40.256 42.8544,-69.253 48.2424,-104.652 -3.895,-29.655 27.25,-76.3715 -10.864,-96.7593 8.097,-20.3831 -15.485,-26.7903 -30.3753,-40.0937 z"
     stroke-miterlimit="2"
     id="path1911" />
  <path
     sodipodi:nodetypes="cccccccccccccccccccccccccccccccccccccccccccccccccccccccc"
     style="fill:none;stroke:#000000;stroke-width:3;stroke-linecap:butt;stroke-linejoin:miter;stroke-miterlimit:2;stroke-opacity:1"
     inkscape:connector-curvature="0"
     d="m 559.7814,56.5312 c -37.236,26.5834 -94.377,-3.24207 -114.517,44.3878 -29.436,-26.359 -59.869,-3.6905 -46.909,28.1434 -49.028,-27.9542 -17.212,30.0358 -34.449,43.2188 -6.48,-41.507 -56.823,14.29 -58.137,-36.2653 -23.063,4.8074 -10.868,49.4593 -37.057,64.5833 7.469,52.8 -16.722,-25.033 -39.884,-21.665 -12.976,-24.9344 -8.571,-55.0405 -35.59,-16.252 1.09,25.596 -31.359,54.244 -64.1536,45.334 -19.7243,12.711 -75.61056,0.659 -48.488,37.407 32.0964,21.958 13.9456,70.669 -24.6174,72.84 2.65922,33.243 29.7318,15.148 34.7959,50.251 -45.0045,45.726 34.9617,78.005 59.4439,75.145 -20.5598,25.434 -21.7913,52.429 19.2182,33.747 39.48,-30.854 64.754,-99.856 125.019,-63.056 37.344,30.661 102.24,36.12 92.639,101.844 35.055,24.73 -2.408,77.409 41.457,76.931 4.804,22.827 45.734,40.174 34.485,64.834 49.062,-12.701 72.975,59.928 108.588,82.041 29.868,38.948 72.691,58.644 114.395,53.452 39.665,8.639 25.491,67.339 67.989,55.16 17.993,13.111 -17.203,33.264 11.491,17.919 46.08,-16.514 34.004,36.878 49.312,55.625 20.783,18.283 32.756,16.3 57.415,16.759 9.805,47.212 61.732,114.895 35.319,152.196 -33.715,0.74 -5.001,52.8 -38.846,63.72 -2.428,53.31 58.469,21.71 62.628,-13.12 40.146,-13.2 4.329,-90.835 68.078,-73.3 24.132,-38.664 -11.647,-82.542 -51.349,-92.826 2.45,-42.282 42.154,-129.526 86.97,-69.7 53.262,-23.593 44.672,81.359 82.482,49.572 29.76,-52.927 -40.95,-94.644 -82.197,-112.676 -31.775,-48.612 -138.554,-38.741 -137.927,-98.285 58.484,-37.373 -28.313,-37.868 -56.556,-30.822 -54.047,-14.642 -100.636,-57.06 -124.996,-109.431 -12.158,-57.78 -32.876,-105.2 -85.945,-131.886 -47.575,-4.446 -87.784,-105.315 -55.394,-116.995 29.323,-13.083 -26.794,-48.666 0.537,-81.675 -6.943,27.558 -19.643,40.334 -17.71,6.145 13.389,-2.06 28.162,-34.333 29.457,-15.419 -22.015,21.396 58.598,-44.66 61.352,-33.146 23.025,15.487 52.475,-4.319 52.301,23.586 30.069,-9.605 -30.715,-31.071 -16.002,-50.394 -28.818,-5.517 28.348,-35.286 -14.888,-31.674 -14.535,-23.0931 56.722,-39.8034 2.465,-44.9604 -44.32,-4.4045 -101.731,-6.6251 -120.862,-55.7964 -1.619,-7.38565 17.088,-6.91804 8.637,-15.4972 z m -39.594,635.031 -0.034,0.09 z m -61.312,-58.812 0.091,0.621 z m 322.531,233.843 -0.156,0.094 z"
     stroke-miterlimit="2"
     id="path3794" />
  <path
     style="fill:#000000;fill-rule:evenodd"
     inkscape:connector-curvature="0"
     d="m 643.931,241.452 c 0,0 0,0 0,0 z"
     id="path21045" />
  
  
  
  
  
  
  
  
  
  
  
  
  
  
  
  
  
  
  
  
</svg>
